g NewMesh_tris_160
v 1.57678 -1.409888 5.024056
v 2.541685 1.252256 6.321713
v 5.774339 -2.06009 -1.235105
v -0.5745708 -4.929851 0.7746502
v 2.711144 -1.832627 -4.992639
v 8.423509 1.058661 -1.912727
v -0.1339134 -1.053473 -6.419193
v 2.993832 1.801964 -6.884191
v -0.05817318 1.790375 -7.536933
v -5.008218 -1.696029 -0.8193884
v -6.698196 1.689565 2.114363
v -4.774257 -1.704332 1.669752
v -0.5745708 -4.929851 0.7746502
v -0.007559993 -1.887484 5.524183
v 0.2101191 1.143742 7.449157
v 1.57678 -1.409888 5.024056
v -0.1339134 -1.053473 -6.419193
v -0.05817318 1.790375 -7.536933
v -6.709185 2.405855 -0.7145115
v 2.541685 1.252256 6.321713
v -0.05817318 1.790375 -7.536933
v 0.4737076 3.231761 -6.963243
v -6.709185 2.405855 -0.7145115
v 2.778885 2.796422 -7.254778
v 2.189617 2.24809 6.841619
v -6.28056 3.265954 -0.02899864
v -6.698196 1.689565 2.114363
v 0.09061243 2.359396 6.974116
v 0.2101191 1.143742 7.449157
v 7.994824 2.258555 -1.888194
v 8.423509 1.058661 -1.912727
v 2.993832 1.801964 -6.884191
v -5.684259 2.44727 2.341157
v 0.2101191 1.143742 7.449157
v 2.541685 1.252256 6.321713
v 0.2101191 1.143742 7.449157
v -38.57955 -1.025282 -18.43576
v -36.75497 1.628786 -18.6605
v -43.21647 -1.677598 -26.41667
v -44.06259 -4.477235 -18.76971
v -48.58822 -1.32465 -25.57139
v -42.68531 1.432765 -29.52992
v -51.40504 -0.453515 -23.55725
v -50.42941 2.376873 -27.02438
v -52.53219 2.440285 -24.33037
v -47.78146 -1.085145 -15.27429
v -45.46515 2.332918 -11.84406
v -45.05544 -1.1365 -14.02132
v -44.06259 -4.477235 -18.76971
v -38.79107 -1.482462 -16.53067
v -36.6519 1.551565 -15.6285
v -38.57955 -1.025282 -18.43576
v -51.40504 -0.453515 -23.55725
v -52.53219 2.440285 -24.33037
v -48.44168 3.101273 -13.53257
v -36.75497 1.628786 -18.6605
v -52.53219 2.440285 -24.33037
v -51.67547 3.879062 -24.53873
v -48.44168 3.101273 -13.53257
v -50.91429 3.393646 -27.0386
v -36.36707 2.636303 -18.00335
v -47.51797 3.952207 -13.56399
v -45.46515 2.332918 -11.84406
v -37.20131 2.791775 -15.80383
v -36.6519 1.551565 -15.6285
v -42.85294 2.65601 -29.09372
v -42.68531 1.432765 -29.52992
v -50.42941 2.376873 -27.02438
v -44.75265 3.074707 -12.74049
v -36.6519 1.551565 -15.6285
v -36.75497 1.628786 -18.6605
v -36.6519 1.551565 -15.6285
v -7.895083 -0.2957658 -0.9081488
v -7.397223 2.492245 -2.204717
v -15.40138 -0.6305758 -0.0347761
v -9.900011 -4.148829 3.118024
v -16.2364 -0.8523717 4.740944
v -17.4707 2.749913 -1.257102
v -15.41981 -0.4396406 7.887262
v -17.65436 2.73935 6.139891
v -16.16039 2.363745 8.854276
v -8.041736 -1.483141 7.818737
v -4.536823 1.76511 7.519366
v -6.311183 -1.398791 6.016323
v -9.900011 -4.148829 3.118024
v -6.51034 -0.9368564 -0.09583921
v -5.030908 2.149449 -1.203644
v -7.895083 -0.2957658 -0.9081488
v -15.41981 -0.4396406 7.887262
v -16.16039 2.363745 8.854276
v -6.631247 2.400235 9.44958
v -7.397223 2.492245 -2.204717
v -16.16039 2.363745 8.854276
v -15.99452 3.870935 8.229394
v -6.631247 2.400235 9.44958
v -17.74069 3.692764 6.645886
v -6.720332 3.455062 -2.17746
v -6.345078 3.321342 8.769074
v -4.536823 1.76511 7.519366
v -5.246436 3.330624 -0.6781572
v -5.030908 2.149449 -1.203644
v -17.10763 3.893554 -0.8276975
v -17.4707 2.749913 -1.257102
v -17.65436 2.73935 6.139891
v -4.98467 2.638862 6.688939
v -5.030908 2.149449 -1.203644
v -7.397223 2.492245 -2.204717
v -5.030908 2.149449 -1.203644
v -36.14432 -2.022087 -7.59729
v -34.64202 0.659365 -7.092415
v -38.05153 -1.740452 -14.91184
v -40.61036 -5.527915 -9.282376
v -42.90147 -1.685998 -15.08245
v -36.941 1.731593 -16.8906
v -45.8796 -1.198435 -13.80594
v -44.28327 2.062371 -16.0356
v -46.78459 1.69357 -14.20575
v -44.86106 -2.807508 -6.601562
v -43.90941 0.1455353 -2.954772
v -42.8373 -2.936125 -5.139201
v -40.61036 -5.527915 -9.282376
v -36.7936 -2.731074 -6.160584
v -35.32773 0.1804619 -4.638934
v -36.14432 -2.022087 -7.59729
v -45.8796 -1.198435 -13.80594
v -46.78459 1.69357 -14.20575
v -46.07009 1.024396 -4.708282
v -34.64202 0.659365 -7.092415
v -46.78459 1.69357 -14.20575
v -46.06177 3.15445 -14.02416
v -46.07009 1.024396 -4.708282
v -44.74364 3.041044 -15.98325
v -34.52412 1.567612 -6.352736
v -45.30774 1.889799 -4.456653
v -43.90941 0.1455353 -2.954772
v -35.81262 1.396785 -4.695528
v -35.32773 0.1804619 -4.638934
v -37.25388 2.861843 -16.39184
v -36.941 1.731593 -16.8906
v -44.28327 2.062371 -16.0356
v -43.10159 1.013512 -3.452425
v -35.32773 0.1804619 -4.638934
v -34.64202 0.659365 -7.092415
v -35.32773 0.1804619 -4.638934

vn 0.5102649 -0.6344871 0.580565
vn 0.6490473 -0.3102373 0.6946154
vn 0.6457123 -0.7635374 0.008139476
vn -0.08052753 -0.9929617 0.0868464
vn 0.3355317 -0.7164946 -0.6115996
vn 0.9819711 -0.1622122 -0.09705605
vn -0.2483855 -0.5772703 -0.7778584
vn 0.4558791 -0.3061135 -0.8357443
vn -0.3321054 0.01161268 -0.9431707
vn -0.7364089 -0.5996943 -0.3131592
vn -0.896116 0.04439421 0.4415937
vn -0.6853595 -0.6272187 0.3699716
vn -0.08052753 -0.9929617 0.0868464
vn -0.07501876 -0.6830369 0.7265211
vn -0.130675 -0.1531872 0.9795191
vn 0.5102649 -0.6344871 0.580565
vn -0.2483855 -0.5772703 -0.7778584
vn -0.3321054 0.01161268 -0.9431707
vn -0.9078369 0.1674133 -0.3844539
vn 0.6490473 -0.3102373 0.6946154
vn -0.3321054 0.01161268 -0.9431707
vn -0.1470951 0.8371936 -0.5267541
vn -0.9078369 0.1674133 -0.3844539
vn 0.3824309 0.5376478 -0.7514528
vn 0.4599387 0.5424934 0.7029632
vn -0.5341288 0.8452497 -0.01610585
vn -0.896116 0.04439421 0.4415937
vn -0.1927031 0.7337512 0.6515171
vn -0.130675 -0.1531872 0.9795191
vn 0.7160532 0.6960784 -0.05236944
vn 0.9819711 -0.1622122 -0.09705605
vn 0.4558791 -0.3061135 -0.8357443
vn -0.4692999 0.7206541 0.510309
vn -0.130675 -0.1531872 0.9795191
vn 0.6490473 -0.3102373 0.6946154
vn -0.130675 -0.1531872 0.9795191
vn 0.7412891 -0.6462926 -0.1810968
vn 0.910514 -0.3250157 -0.2555955
vn 0.2927426 -0.7733706 -0.5623162
vn 0.02716048 -0.9921991 0.1216683
vn -0.3995546 -0.7172261 -0.5709141
vn 0.3611611 -0.176538 -0.9156403
vn -0.8128435 -0.5679135 -0.1294591
vn -0.5382606 -0.3071686 -0.7848076
vn -0.9903147 0.02333054 -0.1368667
vn -0.6234926 -0.5861332 0.5174021
vn -0.01714448 0.05499849 0.9983392
vn 0.006773078 -0.6192414 0.7851714
vn 0.02716048 -0.9921991 0.1216683
vn 0.6024222 -0.686903 0.4065119
vn 0.808867 -0.1580566 0.56635
vn 0.7412891 -0.6462926 -0.1810968
vn -0.8128435 -0.5679135 -0.1294591
vn -0.9903147 0.02333054 -0.1368667
vn -0.7551807 0.1839913 0.6291655
vn 0.910514 -0.3250157 -0.2555955
vn -0.9903147 0.02333054 -0.1368667
vn -0.524491 0.8430325 -0.1191861
vn -0.7551807 0.1839913 0.6291655
vn -0.4857666 0.5370044 -0.6896791
vn 0.8426636 0.5304301 -0.09253021
vn -0.2476526 0.8534192 0.4586324
vn -0.01714448 0.05499849 0.9983392
vn 0.5006606 0.732013 0.462056
vn 0.808867 -0.1580566 0.56635
vn 0.2905205 0.685387 -0.6677144
vn 0.3611611 -0.176538 -0.9156403
vn -0.5382606 -0.3071686 -0.7848076
vn 0.2483242 0.7241454 0.6433883
vn 0.808867 -0.1580566 0.56635
vn 0.910514 -0.3250157 -0.2555955
vn 0.808867 -0.1580566 0.56635
vn 0.07235704 -0.556778 -0.8275039
vn 0.08585022 -0.2159491 -0.9726232
vn -0.456038 -0.6847376 -0.5684749
vn 0.06422747 -0.9930263 -0.09886191
vn -0.7203194 -0.6896958 0.07388972
vn -0.7220495 -0.05210201 -0.6898767
vn -0.458109 -0.6221792 0.6348459
vn -0.9460347 -0.2743878 0.1724229
vn -0.4966503 -0.05121519 0.8664384
vn 0.2102617 -0.6875775 0.6950016
vn 0.9204084 -0.0460187 0.3882404
vn 0.692405 -0.6909966 0.2076028
vn 0.06422747 -0.9930263 -0.09886191
vn 0.5614964 -0.6676279 -0.4888711
vn 0.8179827 -0.1410117 -0.5576916
vn 0.07235704 -0.556778 -0.8275039
vn -0.458109 -0.6221792 0.6348459
vn -0.4966503 -0.05121519 0.8664384
vn 0.3096897 0.05292135 0.9493637
vn 0.08585022 -0.2159491 -0.9726232
vn -0.4966503 -0.05121519 0.8664384
vn -0.257247 0.8007921 0.5408845
vn 0.3096897 0.05292135 0.9493637
vn -0.7885535 0.5575004 0.2595704
vn 0.2617128 0.6096913 -0.7481865
vn 0.3817486 0.7783591 0.4984227
vn 0.9204084 -0.0460187 0.3882404
vn 0.6584021 0.7241221 -0.2053138
vn 0.8179827 -0.1410117 -0.5576916
vn -0.468344 0.7712966 -0.4309937
vn -0.7220495 -0.05210201 -0.6898767
vn -0.9460347 -0.2743878 0.1724229
vn 0.7310584 0.6759413 0.09304292
vn 0.8179827 -0.1410117 -0.5576916
vn 0.08585022 -0.2159491 -0.9726232
vn 0.8179827 -0.1410117 -0.5576916
vn 0.7980736 -0.5967471 -0.0834945
vn 0.9620185 -0.264715 -0.06668229
vn 0.4627309 -0.672164 -0.5779928
vn 0.05248329 -0.9984242 -0.01986582
vn -0.209015 -0.6283916 -0.7492908
vn 0.5809358 -0.02695795 -0.8135028
vn -0.7243899 -0.5564659 -0.4069459
vn -0.3146866 -0.1930242 -0.9293621
vn -0.9276372 0.02545524 -0.3726141
vn -0.6961769 -0.6702779 0.2570314
vn -0.2608316 -0.09935325 0.9602581
vn -0.1484168 -0.7322721 0.6646426
vn 0.05248329 -0.9984242 -0.01986582
vn 0.5238836 -0.7297487 0.4393322
vn 0.6556606 -0.2279476 0.7198257
vn 0.7980736 -0.5967471 -0.0834945
vn -0.7243899 -0.5564659 -0.4069459
vn -0.9276372 0.02545524 -0.3726141
vn -0.8938725 0.07092188 0.4426759
vn 0.9620185 -0.264715 -0.06668229
vn -0.9276372 0.02545524 -0.3726141
vn -0.5265305 0.8413227 -0.122236
vn -0.8938725 0.07092188 0.4426759
vn -0.3340799 0.6273503 -0.7034361
vn 0.8089979 0.5540972 0.1962106
vn -0.3984871 0.7680239 0.5013455
vn -0.2608316 -0.09935325 0.9602581
vn 0.3324299 0.6616244 0.6721185
vn 0.6556606 -0.2279476 0.7198257
vn 0.4043519 0.7851665 -0.4690555
vn 0.5809358 -0.02695795 -0.8135028
vn -0.3146866 -0.1930242 -0.9293621
vn 0.04461395 0.6212505 0.7823409
vn 0.6556606 -0.2279476 0.7198257
vn 0.9620185 -0.264715 -0.06668229
vn 0.6556606 -0.2279476 0.7198257

vt 0.105564 0.006299
vt 0.006812 0.006898
vt 0.115004 0.228681
vt 0.285904 0.075228
vt 0.229389 0.312587
vt 0.003993 0.304615
vt 0.324684 0.354119
vt 0.211654 0.447158
vt 0.310041 0.461608
vt 0.16035 0.745655
vt 0.288167 0.656228
vt 0.164196 0.667298
vt 0.003246 0.683027
vt 0.067431 0.51652
vt 0.131236 0.413714
vt 0.01575 0.482876
vt 0.045109 0.963272
vt 0.136155 0.998269
vt 0.28601 0.764813
vt 0.04678 0.376307
vt 0.97866 0.129421
vt 0.89064 0.202527
vt 0.991554 0.801269
vt 0.822159 0.092702
vt 0.365779 0.784853
vt 0.948556 0.802379
vt 0.919272 0.984635
vt 0.444918 0.895818
vt 0.372689 0.987781
vt 0.418667 0.143893
vt 0.356494 0.038484
vt 0.821652 0.003784
vt 0.845707 0.911495
vt 0.372689 0.987781
vt 0.295914 0.776598
vt 0.372689 0.987781
vt 0.105564 0.006299
vt 0.006812 0.006898
vt 0.115004 0.228681
vt 0.285904 0.075228
vt 0.229389 0.312587
vt 0.003993 0.304615
vt 0.324684 0.354119
vt 0.211654 0.447158
vt 0.310041 0.461608
vt 0.16035 0.745655
vt 0.288167 0.656228
vt 0.164196 0.667298
vt 0.003246 0.683027
vt 0.067431 0.51652
vt 0.131236 0.413714
vt 0.01575 0.482876
vt 0.045109 0.963272
vt 0.136155 0.998269
vt 0.28601 0.764813
vt 0.04678 0.376307
vt 0.97866 0.129421
vt 0.89064 0.202527
vt 0.991554 0.801269
vt 0.822159 0.092702
vt 0.365779 0.784853
vt 0.948556 0.802379
vt 0.919272 0.984635
vt 0.444918 0.895818
vt 0.372689 0.987781
vt 0.418667 0.143893
vt 0.356494 0.038484
vt 0.821652 0.003784
vt 0.845707 0.911495
vt 0.372689 0.987781
vt 0.295914 0.776598
vt 0.372689 0.987781
vt 0.105564 0.006299
vt 0.006812 0.006898
vt 0.115004 0.228681
vt 0.285904 0.075228
vt 0.229389 0.312587
vt 0.003993 0.304615
vt 0.324684 0.354119
vt 0.211654 0.447158
vt 0.310041 0.461608
vt 0.16035 0.745655
vt 0.288167 0.656228
vt 0.164196 0.667298
vt 0.003246 0.683027
vt 0.067431 0.51652
vt 0.131236 0.413714
vt 0.01575 0.482876
vt 0.045109 0.963272
vt 0.136155 0.998269
vt 0.28601 0.764813
vt 0.04678 0.376307
vt 0.97866 0.129421
vt 0.89064 0.202527
vt 0.991554 0.801269
vt 0.822159 0.092702
vt 0.365779 0.784853
vt 0.948556 0.802379
vt 0.919272 0.984635
vt 0.444918 0.895818
vt 0.372689 0.987781
vt 0.418667 0.143893
vt 0.356494 0.038484
vt 0.821652 0.003784
vt 0.845707 0.911495
vt 0.372689 0.987781
vt 0.295914 0.776598
vt 0.372689 0.987781
vt 0.105564 0.006299
vt 0.006812 0.006898
vt 0.115004 0.228681
vt 0.285904 0.075228
vt 0.229389 0.312587
vt 0.003993 0.304615
vt 0.324684 0.354119
vt 0.211654 0.447158
vt 0.310041 0.461608
vt 0.16035 0.745655
vt 0.288167 0.656228
vt 0.164196 0.667298
vt 0.003246 0.683027
vt 0.067431 0.51652
vt 0.131236 0.413714
vt 0.01575 0.482876
vt 0.045109 0.963272
vt 0.136155 0.998269
vt 0.28601 0.764813
vt 0.04678 0.376307
vt 0.97866 0.129421
vt 0.89064 0.202527
vt 0.991554 0.801269
vt 0.822159 0.092702
vt 0.365779 0.784853
vt 0.948556 0.802379
vt 0.919272 0.984635
vt 0.444918 0.895818
vt 0.372689 0.987781
vt 0.418667 0.143893
vt 0.356494 0.038484
vt 0.821652 0.003784
vt 0.845707 0.911495
vt 0.372689 0.987781
vt 0.295914 0.776598
vt 0.372689 0.987781




usemtl G_Edge_Dif
usemap G_Edge_Dif
f 2/2/2 1/1/1 3/3/3
f 2/2/2 3/3/3 6/6/6
f 6/6/6 3/3/3 5/5/5
f 6/6/6 5/5/5 8/8/8
f 8/8/8 5/5/5 7/7/7
f 8/8/8 7/7/7 9/9/9
f 11/11/11 19/19/19 10/10/10
f 11/11/11 10/10/10 12/12/12
f 12/12/12 10/10/10 13/13/13
f 12/12/12 13/13/13 14/14/14
f 14/14/14 13/13/13 16/16/16
f 14/14/14 16/16/16 15/15/15
f 15/15/15 16/16/16 20/20/20
f 34/34/34 25/25/25 28/28/28
f 28/28/28 25/25/25 26/26/26
f 28/28/28 26/26/26 33/33/33
f 33/33/33 26/26/26 27/27/27
f 33/33/33 27/27/27 28/28/28
f 28/28/28 27/27/27 29/29/29
f 23/23/23 27/27/27 26/26/26
f 23/23/23 26/26/26 22/22/22
f 22/22/22 26/26/26 25/25/25
f 22/22/22 25/25/25 24/24/24
f 24/24/24 25/25/25 30/30/30
f 24/24/24 30/30/30 31/31/31
f 31/31/31 30/30/30 25/25/25
f 31/31/31 25/25/25 35/35/35
f 35/35/35 25/25/25 36/36/36
f 38/38/38 37/37/37 39/39/39
f 38/38/38 39/39/39 42/42/42
f 42/42/42 39/39/39 41/41/41
f 42/42/42 41/41/41 44/44/44
f 44/44/44 41/41/41 43/43/43
f 44/44/44 43/43/43 45/45/45
f 47/47/47 55/55/55 46/46/46
f 47/47/47 46/46/46 48/48/48
f 48/48/48 46/46/46 49/49/49
f 48/48/48 49/49/49 50/50/50
f 50/50/50 49/49/49 52/52/52
f 50/50/50 52/52/52 51/51/51
f 51/51/51 52/52/52 56/56/56
f 70/70/70 61/61/61 64/64/64
f 64/64/64 61/61/61 62/62/62
f 64/64/64 62/62/62 69/69/69
f 69/69/69 62/62/62 63/63/63
f 69/69/69 63/63/63 64/64/64
f 64/64/64 63/63/63 65/65/65
f 59/59/59 63/63/63 62/62/62
f 59/59/59 62/62/62 58/58/58
f 58/58/58 62/62/62 61/61/61
f 58/58/58 61/61/61 60/60/60
f 60/60/60 61/61/61 66/66/66
f 60/60/60 66/66/66 67/67/67
f 67/67/67 66/66/66 61/61/61
f 67/67/67 61/61/61 71/71/71
f 71/71/71 61/61/61 72/72/72
f 74/74/74 73/73/73 75/75/75
f 74/74/74 75/75/75 78/78/78
f 78/78/78 75/75/75 77/77/77
f 78/78/78 77/77/77 80/80/80
f 80/80/80 77/77/77 79/79/79
f 80/80/80 79/79/79 81/81/81
f 83/83/83 91/91/91 82/82/82
f 83/83/83 82/82/82 84/84/84
f 84/84/84 82/82/82 85/85/85
f 84/84/84 85/85/85 86/86/86
f 86/86/86 85/85/85 88/88/88
f 86/86/86 88/88/88 87/87/87
f 87/87/87 88/88/88 92/92/92
f 106/106/106 97/97/97 100/100/100
f 100/100/100 97/97/97 98/98/98
f 100/100/100 98/98/98 105/105/105
f 105/105/105 98/98/98 99/99/99
f 105/105/105 99/99/99 100/100/100
f 100/100/100 99/99/99 101/101/101
f 95/95/95 99/99/99 98/98/98
f 95/95/95 98/98/98 94/94/94
f 94/94/94 98/98/98 97/97/97
f 94/94/94 97/97/97 96/96/96
f 96/96/96 97/97/97 102/102/102
f 96/96/96 102/102/102 103/103/103
f 103/103/103 102/102/102 97/97/97
f 103/103/103 97/97/97 107/107/107
f 107/107/107 97/97/97 108/108/108
f 110/110/110 109/109/109 111/111/111
f 110/110/110 111/111/111 114/114/114
f 114/114/114 111/111/111 113/113/113
f 114/114/114 113/113/113 116/116/116
f 116/116/116 113/113/113 115/115/115
f 116/116/116 115/115/115 117/117/117
f 119/119/119 127/127/127 118/118/118
f 119/119/119 118/118/118 120/120/120
f 120/120/120 118/118/118 121/121/121
f 120/120/120 121/121/121 122/122/122
f 122/122/122 121/121/121 124/124/124
f 122/122/122 124/124/124 123/123/123
f 123/123/123 124/124/124 128/128/128
f 142/142/142 133/133/133 136/136/136
f 136/136/136 133/133/133 134/134/134
f 136/136/136 134/134/134 141/141/141
f 141/141/141 134/134/134 135/135/135
f 141/141/141 135/135/135 136/136/136
f 136/136/136 135/135/135 137/137/137
f 131/131/131 135/135/135 134/134/134
f 131/131/131 134/134/134 130/130/130
f 130/130/130 134/134/134 133/133/133
f 130/130/130 133/133/133 132/132/132
f 132/132/132 133/133/133 138/138/138
f 132/132/132 138/138/138 139/139/139
f 139/139/139 138/138/138 133/133/133
f 139/139/139 133/133/133 143/143/143
f 143/143/143 133/133/133 144/144/144
f 3/3/3 1/1/1 4/4/4
f 3/3/3 4/4/4 5/5/5
f 5/5/5 4/4/4 7/7/7
f 12/12/12 14/14/14 15/15/15
f 12/12/12 15/15/15 11/11/11
f 17/17/17 13/13/13 10/10/10
f 17/17/17 10/10/10 18/18/18
f 18/18/18 10/10/10 19/19/19
f 31/31/31 32/32/32 24/24/24
f 24/24/24 32/32/32 21/21/21
f 24/24/24 21/21/21 22/22/22
f 22/22/22 21/21/21 23/23/23
f 39/39/39 37/37/37 40/40/40
f 39/39/39 40/40/40 41/41/41
f 41/41/41 40/40/40 43/43/43
f 48/48/48 50/50/50 51/51/51
f 48/48/48 51/51/51 47/47/47
f 53/53/53 49/49/49 46/46/46
f 53/53/53 46/46/46 54/54/54
f 54/54/54 46/46/46 55/55/55
f 67/67/67 68/68/68 60/60/60
f 60/60/60 68/68/68 57/57/57
f 60/60/60 57/57/57 58/58/58
f 58/58/58 57/57/57 59/59/59
f 75/75/75 73/73/73 76/76/76
f 75/75/75 76/76/76 77/77/77
f 77/77/77 76/76/76 79/79/79
f 84/84/84 86/86/86 87/87/87
f 84/84/84 87/87/87 83/83/83
f 89/89/89 85/85/85 82/82/82
f 89/89/89 82/82/82 90/90/90
f 90/90/90 82/82/82 91/91/91
f 103/103/103 104/104/104 96/96/96
f 96/96/96 104/104/104 93/93/93
f 96/96/96 93/93/93 94/94/94
f 94/94/94 93/93/93 95/95/95
f 111/111/111 109/109/109 112/112/112
f 111/111/111 112/112/112 113/113/113
f 113/113/113 112/112/112 115/115/115
f 120/120/120 122/122/122 123/123/123
f 120/120/120 123/123/123 119/119/119
f 125/125/125 121/121/121 118/118/118
f 125/125/125 118/118/118 126/126/126
f 126/126/126 118/118/118 127/127/127
f 139/139/139 140/140/140 132/132/132
f 132/132/132 140/140/140 129/129/129
f 132/132/132 129/129/129 130/130/130
f 130/130/130 129/129/129 131/131/131

