g NewMesh_tris_168
v -17.43299 -5.570118 -11.25037
v -17.21144 -17.95577 -10.35819
v -13.08765 -5.658503 -8.728202
v -12.77589 -17.8038 -8.051624
v -22.32427 -17.95976 -11.47713
v -22.20492 -5.824432 -12.41228
v -17.87648 -4.890487 -10.23607
v -13.36508 -5.560554 -8.271422
v -22.39529 -5.279307 -11.97025
v -17.43299 -5.570118 -11.25037
v -13.08765 -5.658503 -8.728202
v -17.21144 -17.95577 -10.35819
v -12.77589 -17.8038 -8.051624
v -22.32427 -17.95976 -11.47713
v -22.20492 -5.824432 -12.41228
v -17.87648 -4.890487 -10.23607
v -13.36508 -5.560554 -8.271422
v -22.39529 -5.279307 -11.97025
v 23.58837 -15.12934 -51.41307
v 22.93823 -32.14362 -51.6859
v 24.57928 -15.49261 -55.16032
v 23.71497 -32.14362 -55.45444
v 23.57483 -32.14362 -47.6772
v 24.03773 -15.45317 -47.64444
v 24.81445 -14.37073 -51.3111
v 25.13343 -15.4372 -55.05576
v 24.60024 -14.78307 -47.60383
v 23.58837 -15.12934 -51.41307
v 24.57928 -15.49261 -55.16032
v 22.93823 -32.14362 -51.6859
v 23.71497 -32.14362 -55.45444
v 23.57483 -32.14362 -47.6772
v 24.03773 -15.45317 -47.64444
v 24.81445 -14.37073 -51.3111
v 25.13343 -15.4372 -55.05576
v 24.60024 -14.78307 -47.60383
v -54.9085 -1.224307 -22.90178
v -54.54322 -12.50053 -22.5757
v -48.66911 -1.011234 -20.29165
v -48.47781 -12.31675 -20.1215
v -60.78829 -12.62963 -24.45633
v -61.53641 -1.097694 -24.31344
v -55.20971 -0.395928 -22.03918
v -48.8073 -0.4507945 -19.7016
v -61.66697 -0.8216417 -23.98928
v -54.9085 -1.224307 -22.90178
v -48.66911 -1.011234 -20.29165
v -54.54322 -12.50053 -22.5757
v -48.47781 -12.31675 -20.1215
v -60.78829 -12.62963 -24.45633
v -61.53641 -1.097694 -24.31344
v -55.20971 -0.395928 -22.03918
v -48.8073 -0.4507945 -19.7016
v -61.66697 -0.8216417 -23.98928
v -8.691735 -0.3444262 -6.9202
v -8.137279 -8.526071 -6.745749
v -3.311157 0.008004006 -2.832028
v -2.88535 -8.202464 -2.852351
v -13.70795 -8.799893 -10.12908
v -14.75667 -0.4292184 -9.941244
v -9.219808 0.2722096 -6.145516
v -3.606555 0.4267564 -2.285247
v -14.97105 -0.2234878 -9.655199
v -8.691735 -0.3444262 -6.9202
v -3.311157 0.008004006 -2.832028
v -8.137279 -8.526071 -6.745749
v -2.88535 -8.202464 -2.852351
v -13.70795 -8.799893 -10.12908
v -14.75667 -0.4292184 -9.941244
v -9.219808 0.2722096 -6.145516
v -3.606555 0.4267564 -2.285247
v -14.97105 -0.2234878 -9.655199
v -4.465453 0.02200154 -2.839854
v -4.356778 -20.80082 -1.830377
v 5.512759 0.09500822 2.540354
v 5.62806 -20.48915 3.52358
v 5.031089 1.834123 3.337404
v -4.953749 1.522456 -2.016553
v -4.465453 0.02200154 -2.839854
v 5.512759 0.09500822 2.540354
v -4.356778 -20.80082 -1.830377
v 5.62806 -20.48915 3.52358
v 5.031089 1.834123 3.337404
v -4.953749 1.522456 -2.016553
v 11.22377 -15.00681 9.676091
v 9.425089 -35.7206 8.151451
v 18.52107 -15.2433 1.003712
v 16.73042 -35.71713 -0.5140627
v 19.42694 -13.66627 1.768026
v 12.12161 -13.66974 10.43354
v 11.22377 -15.00681 9.676091
v 18.52107 -15.2433 1.003712
v 9.425089 -35.7206 8.151451
v 16.73042 -35.71713 -0.5140627
v 19.42694 -13.66627 1.768026
v 12.12161 -13.66974 10.43354
v -42.51899 -5.840528 -12.30655
v -43.22696 -26.65901 -11.46378
v -31.24499 -6.503813 -13.29335
v -31.94633 -27.08363 -12.47683
v -31.09653 -4.768045 -12.36767
v -42.37715 -4.343421 -11.35462
v -42.51899 -5.840528 -12.30655
v -31.24499 -6.503813 -13.29335
v -43.22696 -26.65901 -11.46378
v -31.94633 -27.08363 -12.47683
v -31.09653 -4.768045 -12.36767
v -42.37715 -4.343421 -11.35462
v 27.19488 -27.74846 -47.87033
v 27.74003 -36.17881 -47.94774
v 26.94538 -27.81979 -52.45704
v 27.47754 -36.15369 -52.53317
v 27.30434 -27.10565 -52.47367
v 27.56683 -27.13078 -47.88824
v 27.19488 -27.74846 -47.87033
v 26.94538 -27.81979 -52.45704
v 27.74003 -36.17881 -47.94774
v 27.47754 -36.15369 -52.53317
v 27.30434 -27.10565 -52.47367
v 27.56683 -27.13078 -47.88824
v 24.33025 -21.22942 -61.41082
v 23.35881 -35.51028 -61.71908
v 26.06231 -21.29432 -66.87102
v 25.09137 -35.51028 -67.17912
v 26.75515 -20.31426 -66.64848
v 25.02259 -20.31426 -61.18845
v 24.33025 -21.22942 -61.41082
v 26.06231 -21.29432 -66.87102
v 23.35881 -35.51028 -61.71908
v 25.09137 -35.51028 -67.17912
v 26.75515 -20.31426 -66.64848
v 25.02259 -20.31426 -61.18845
v 25.6089 -19.04105 -54.1624
v 24.65235 -28.09428 -54.14318
v 26.27732 -19.16373 -60.82931
v 25.32036 -28.17902 -60.81062
v 27.10877 -18.58379 -60.75037
v 26.44076 -18.49906 -54.08293
v 25.6089 -19.04105 -54.1624
v 26.27732 -19.16373 -60.82931
v 24.65235 -28.09428 -54.14318
v 25.32036 -28.17902 -60.81062
v 27.10877 -18.58379 -60.75037
v 26.44076 -18.49906 -54.08293
v 21.87433 -37.2762 -12.06576
v 21.72681 -45.55287 -11.91417
v 22.49321 -37.4011 -16.86617
v 22.34377 -45.6518 -16.71536
v 23.06848 -37.0006 -16.79831
v 22.45152 -36.90167 -11.99712
v 21.87433 -37.2762 -12.06576
v 22.49321 -37.4011 -16.86617
v 21.72681 -45.55287 -11.91417
v 22.34377 -45.6518 -16.71536
v 23.06848 -37.0006 -16.79831
v 22.45152 -36.90167 -11.99712
v 18.77587 15.31252 6.717907
v 19.0658 2.554774 7.535471
v 23.44878 15.35615 6.369204
v 23.73755 2.638216 7.18083
v 23.49275 16.0261 7.133803
v 18.821 15.94266 7.488443
v 18.77587 15.31252 6.717907
v 23.44878 15.35615 6.369204
v 19.0658 2.554774 7.535471
v 23.73755 2.638216 7.18083
v 23.49275 16.0261 7.133803
v 18.821 15.94266 7.488443
v 18.35537 -33.60794 -0.4182077
v 17.9041 -39.21784 -0.3697776
v 18.76697 -33.70021 -5.241509
v 18.31473 -39.29251 -5.193434
v 19.35872 -33.42605 -5.193203
v 18.94809 -33.35138 -0.3695469
v 18.35537 -33.60794 -0.4182077
v 18.76697 -33.70021 -5.241509
v 17.9041 -39.21784 -0.3697776
v 18.31473 -39.29251 -5.193434
v 19.35872 -33.42605 -5.193203
v 18.94809 -33.35138 -0.3695469
v -27.52091 -8.098407 -13.75311
v -27.40199 -13.7121 -13.36681
v -22.69023 -7.99232 -13.44419
v -22.57152 -13.58876 -13.06147
v -22.73602 -7.634625 -12.89865
v -27.56648 -7.757965 -13.20398
v -27.52091 -8.098407 -13.75311
v -22.69023 -7.99232 -13.44419
v -27.40199 -13.7121 -13.36681
v -22.57152 -13.58876 -13.06147
v -22.73602 -7.634625 -12.89865
v -27.56648 -7.757965 -13.20398
v -76.24326 -8.006102 -24.24652
v -76.03146 -15.03173 -23.93954
v -71.45339 -7.85355 -23.55645
v -71.24191 -14.85733 -23.2528
v -71.54845 -7.466657 -23.00696
v -76.33801 -7.641055 -23.69369
v -76.24326 -8.006102 -24.24652
v -71.45339 -7.85355 -23.55645
v -76.03146 -15.03173 -23.93954
v -71.24191 -14.85733 -23.2528
v -71.54845 -7.466657 -23.00696
v -76.33801 -7.641055 -23.69369
v -48.03481 -0.4455463 -19.78669
v -47.65948 -7.386166 -19.06809
v -43.55812 -0.03916218 -17.98768
v -43.18305 -6.958291 -17.27354
v -43.79544 0.364799 -17.49786
v -48.27186 -0.06307573 -19.29241
v -48.03481 -0.4455463 -19.78669
v -43.55812 -0.03916218 -17.98768
v -47.65948 -7.386166 -19.06809
v -43.18305 -6.958291 -17.27354
v -43.79544 0.364799 -17.49786
v -48.27186 -0.06307573 -19.29241
v 29.60911 -35.91385 -63.36069
v 28.98751 -45.72635 -63.44623
v 29.96084 -35.9322 -67.36846
v 29.33921 -45.71369 -67.4539
v 30.46378 -35.50955 -67.32119
v 30.11208 -35.52221 -63.31351
v 29.60911 -35.91385 -63.36069
v 29.96084 -35.9322 -67.36846
v 28.98751 -45.72635 -63.44623
v 29.33921 -45.71369 -67.4539
v 30.46378 -35.50955 -67.32119
v 30.11208 -35.52221 -63.31351

vn 0.3149644 0.4848629 -0.8159076
vn 0.3495188 -0.04081433 -0.9360399
vn 0.4345397 0.5956224 -0.6755806
vn 0.4618118 -0.02028672 -0.8867459
vn 0.2211893 -0.05893619 -0.9734484
vn 0.2335213 0.3969767 -0.8876245
vn 0.157003 0.8895162 -0.4290814
vn 0.1557818 0.9828136 -0.09904307
vn 0.1961039 0.7354546 -0.6485751
vn -0.3149644 -0.4848629 0.8159076
vn -0.4345397 -0.5956224 0.6755806
vn -0.3495188 0.04081433 0.9360399
vn -0.4618118 0.02028672 0.8867459
vn -0.2211893 0.05893619 0.9734484
vn -0.2335213 -0.3969767 0.8876245
vn -0.157003 -0.8895162 0.4290814
vn -0.1557818 -0.9828136 0.09904307
vn -0.1961039 -0.7354546 0.6485751
vn -0.8133084 0.5792554 -0.05470544
vn -0.9964821 0.0710177 -0.04449692
vn -0.7048956 0.6766042 -0.2129061
vn -0.982013 0.08859656 -0.1667369
vn -0.9945301 0.05414115 0.08932245
vn -0.8659939 0.4979473 0.04586048
vn -0.353812 0.9348971 -0.02800838
vn -0.03101081 0.991114 -0.1293507
vn -0.5905644 0.8069804 0.004037278
vn 0.8133084 -0.5792554 0.05470544
vn 0.7048956 -0.6766042 0.2129061
vn 0.9964821 -0.0710177 0.04449692
vn 0.982013 -0.08859656 0.1667369
vn 0.9945301 -0.05414115 -0.08932245
vn 0.8659939 -0.4979473 -0.04586048
vn 0.353812 -0.9348971 0.02800838
vn 0.03101081 -0.991114 0.1293507
vn 0.5905644 -0.8069804 -0.004037278
vn 0.280408 0.3807837 -0.8811215
vn 0.3346613 -0.01689736 -0.9421869
vn 0.3384417 0.4024199 -0.8505971
vn 0.3753349 -0.0106487 -0.9268281
vn 0.2625215 -0.007079459 -0.9649001
vn 0.1878756 0.4597223 -0.8679619
vn 0.2002922 0.7285365 -0.6550707
vn 0.2448971 0.7184828 -0.6510052
vn 0.1364067 0.7691361 -0.6243581
vn -0.280408 -0.3807837 0.8811215
vn -0.3384417 -0.4024199 0.8505971
vn -0.3346613 0.01689736 0.9421869
vn -0.3753349 0.0106487 0.9268281
vn -0.2625215 0.007079459 0.9649001
vn -0.1878756 -0.4597223 0.8679619
vn -0.2002922 -0.7285365 0.6550707
vn -0.2448971 -0.7184828 0.6510052
vn -0.1364067 -0.7691361 0.6243581
vn 0.4832169 0.388264 -0.7846989
vn 0.5601823 -0.007962216 -0.828331
vn 0.5312459 0.4112246 -0.740724
vn 0.5955602 -0.0007760134 -0.8033102
vn 0.4958197 0.0001819499 -0.8684254
vn 0.3885426 0.4649898 -0.7954992
vn 0.3410657 0.7337819 -0.5875697
vn 0.3834519 0.7247754 -0.5724204
vn 0.2706074 0.7728332 -0.5740213
vn -0.4832169 -0.388264 0.7846989
vn -0.5312459 -0.4112246 0.740724
vn -0.5601823 0.007962216 0.828331
vn -0.5955602 0.0007760134 0.8033102
vn -0.4958197 -0.0001819499 0.8684254
vn -0.3885426 -0.4649898 0.7954992
vn -0.3410657 -0.7337819 0.5875697
vn -0.3834519 -0.7247754 0.5724204
vn -0.2706074 -0.7728332 0.5740213
vn 0.4512604 0.2600061 -0.853675
vn 0.4735527 -0.0396495 -0.8798727
vn 0.4614629 0.2203913 -0.8593484
vn 0.4731479 -0.03938842 -0.8801022
vn 0.4129385 0.478168 -0.7751369
vn 0.3855254 0.5371164 -0.7502508
vn -0.4512604 -0.2600061 0.853675
vn -0.4614629 -0.2203913 0.8593484
vn -0.4735527 0.0396495 0.8798727
vn -0.4731479 0.03938842 0.8801022
vn -0.4129385 -0.478168 0.7751369
vn -0.3855254 -0.5371164 0.7502508
vn -0.6983051 0.4047051 -0.5904099
vn -0.7593359 0.1136331 -0.6407001
vn -0.707006 0.3669037 -0.6045859
vn -0.7596073 0.1139052 -0.64033
vn -0.6008525 0.6067726 -0.5203877
vn -0.5745167 0.6600025 -0.4840736
vn 0.6983051 -0.4047051 0.5904099
vn 0.707006 -0.3669037 0.6045859
vn 0.7593359 -0.1136331 0.6407001
vn 0.7596073 -0.1139052 0.64033
vn 0.6008525 -0.6067726 0.5203877
vn 0.5745167 -0.6600025 0.4840736
vn -0.0750573 0.2627097 -0.9619512
vn -0.09029768 -0.0366837 -0.995239
vn -0.07223529 0.2227982 -0.9721846
vn -0.090744 -0.03639294 -0.9952091
vn -0.04976915 0.4799326 -0.8758926
vn -0.05514785 0.5394573 -0.840205
vn 0.0750573 -0.2627097 0.9619512
vn 0.07223529 -0.2227982 0.9721846
vn 0.09029768 0.0366837 0.995239
vn 0.090744 0.03639294 0.9952091
vn 0.04976915 -0.4799326 0.8758926
vn 0.05514785 -0.5394573 0.840205
vn -0.9701548 0.2360751 0.05539162
vn -0.9963386 -0.06440862 0.05622211
vn -0.9792842 0.1960998 0.05046786
vn -0.99633 -0.0641377 0.05668165
vn -0.8888543 0.4562063 0.04258971
vn -0.8548664 0.5162594 0.05176428
vn 0.9701548 -0.2360751 -0.05539162
vn 0.9792842 -0.1960998 -0.05046786
vn 0.9963386 0.06440862 -0.05622211
vn 0.99633 0.0641377 -0.05668165
vn 0.8888543 -0.4562063 -0.04258971
vn 0.8548664 -0.5162594 -0.05176428
vn -0.8539354 0.4438143 -0.2717044
vn -0.9488568 0.09424295 -0.3013123
vn -0.8610009 0.426728 -0.2767321
vn -0.9489102 0.09436665 -0.3011051
vn -0.6658689 0.7138843 -0.2167665
vn -0.6465174 0.7347983 -0.2051508
vn 0.8539354 -0.4438143 0.2717044
vn 0.8610009 -0.426728 0.2767321
vn 0.9488568 -0.09424295 0.3013123
vn 0.9489102 -0.09436665 0.3011051
vn 0.6658689 -0.7138843 0.2167665
vn 0.6465174 -0.7347983 0.2051508
vn -0.8904945 0.4448484 -0.09554742
vn -0.9921872 0.07387961 -0.1005307
vn -0.8985487 0.4276215 -0.09874275
vn -0.9921963 0.07400321 -0.1003492
vn -0.6792356 0.7292784 -0.08241304
vn -0.6571901 0.7499465 -0.07537507
vn 0.8904945 -0.4448484 0.09554742
vn 0.8985487 -0.4276215 0.09874275
vn 0.9921872 -0.07387961 0.1005307
vn 0.9921963 -0.07400321 0.1003492
vn 0.6792356 -0.7292784 0.08241304
vn 0.6571901 -0.7499465 0.07537507
vn -0.9079061 0.3999476 -0.1254934
vn -0.9917858 -0.01232124 -0.1273153
vn -0.9157019 0.3806145 -0.1289283
vn -0.991802 -0.01225786 -0.1271956
vn -0.687347 0.7181828 -0.108479
vn -0.6637022 0.7412064 -0.10056
vn 0.9079061 -0.3999476 0.1254934
vn 0.9157019 -0.3806145 0.1289283
vn 0.9917858 0.01232124 0.1273153
vn 0.991802 0.01225786 0.1271956
vn 0.687347 -0.7181828 0.108479
vn 0.6637022 -0.7412064 0.10056
vn -0.07671385 0.332343 -0.9400336
vn -0.07379017 -0.08493555 -0.9936502
vn -0.07407338 0.3125737 -0.9470008
vn -0.07391335 -0.08487706 -0.9936462
vn -0.06299388 0.6659853 -0.7433003
vn -0.06700496 0.6905237 -0.7201994
vn 0.07671385 -0.332343 0.9400336
vn 0.07407338 -0.3125737 0.9470008
vn 0.07379017 0.08493555 0.9936502
vn 0.07391335 0.08487706 0.9936462
vn 0.06299388 -0.6659853 0.7433003
vn 0.06700496 -0.6905237 0.7201994
vn -0.9043743 0.4183818 -0.08404644
vn -0.9963449 0.007839313 -0.08506071
vn -0.9126875 0.3992296 -0.08727586
vn -0.9963548 0.007902097 -0.08493999
vn -0.6770781 0.7321506 -0.07430264
vn -0.6526705 0.7546519 -0.06724307
vn 0.9043743 -0.4183818 0.08404644
vn 0.9126875 -0.3992296 0.08727586
vn 0.9963449 -0.007839313 0.08506071
vn 0.9963548 -0.007902097 0.08493999
vn 0.6770781 -0.7321506 0.07430264
vn 0.6526705 -0.7546519 0.06724307
vn 0.05395912 0.2813382 -0.9580904
vn 0.06611432 -0.1381258 -0.9882055
vn 0.05763089 0.261261 -0.9635462
vn 0.06599154 -0.1380686 -0.9882218
vn 0.03864449 0.6250377 -0.7796375
vn 0.03134136 0.6507125 -0.758677
vn -0.05395912 -0.2813382 0.9580904
vn -0.05763089 -0.261261 0.9635462
vn -0.06611432 0.1381258 0.9882055
vn -0.06599154 0.1380686 0.9882218
vn -0.03864449 -0.6250377 0.7796375
vn -0.03134136 -0.6507125 0.758677
vn 0.1224154 0.3341444 -0.9345384
vn 0.1445184 -0.08282665 -0.9860295
vn 0.1268627 0.31445 -0.9407588
vn 0.1443962 -0.0827704 -0.9860523
vn 0.08712655 0.6672999 -0.7396756
vn 0.07776318 0.6916823 -0.7180031
vn -0.1224154 -0.3341444 0.9345384
vn -0.1268627 -0.31445 0.9407588
vn -0.1445184 0.08282665 0.9860295
vn -0.1443962 0.0827704 0.9860523
vn -0.08712655 -0.6672999 0.7396756
vn -0.07776318 -0.6916823 0.7180031
vn 0.3311073 0.2977921 -0.8953702
vn 0.3793711 -0.1195641 -0.9174868
vn 0.3375968 0.2780705 -0.8992803
vn 0.379256 -0.1195147 -0.9175409
vn 0.2386053 0.6372381 -0.7327996
vn 0.2234806 0.6620926 -0.7153249
vn -0.3311073 -0.2977921 0.8953702
vn -0.3375968 -0.2780705 0.8992803
vn -0.3793711 0.1195641 0.9174868
vn -0.379256 0.1195147 0.9175409
vn -0.2386053 -0.6372381 0.7327996
vn -0.2234806 -0.6620926 0.7153249
vn -0.8800647 0.4686782 -0.07633404
vn -0.9941446 0.06386564 -0.0871639
vn -0.889392 0.4500856 -0.08002982
vn -0.9941516 0.06392605 -0.08704177
vn -0.6361346 0.76934 -0.05872687
vn -0.6105689 0.7903137 -0.05108635
vn 0.8800647 -0.4686782 0.07633404
vn 0.889392 -0.4500856 0.08002982
vn 0.9941446 -0.06386564 0.0871639
vn 0.9941516 -0.06392605 0.08704177
vn 0.6361346 -0.76934 0.05872687
vn 0.6105689 -0.7903137 0.05108635

vt 0.729836 0.968822
vt 0.716889 0.4835
vt 0.540142 0.975514
vt 0.522791 0.482184
vt 0.918043 0.484863
vt 0.918043 0.962797
vt 0.730668 1
vt 0.541003 1
vt 0.918043 1
vt 0.729836 0.968822
vt 0.540142 0.975514
vt 0.716889 0.4835
vt 0.522791 0.482184
vt 0.918043 0.484863
vt 0.918043 0.962797
vt 0.730668 1
vt 0.541003 1
vt 0.918043 1
vt 0.729836 0.968822
vt 0.716889 0.4835
vt 0.540142 0.975514
vt 0.522791 0.482184
vt 0.918043 0.484863
vt 0.918043 0.962797
vt 0.730668 1
vt 0.541003 1
vt 0.918043 1
vt 0.729836 0.968822
vt 0.540142 0.975514
vt 0.716889 0.4835
vt 0.522791 0.482184
vt 0.918043 0.484863
vt 0.918043 0.962797
vt 0.730668 1
vt 0.541003 1
vt 0.918043 1
vt 0.269931 0.967478
vt 0.261395 0.480716
vt 0 0.96808
vt 0 0.479248
vt 0.522791 0.482184
vt 0.540178 0.976556
vt 0.270501 1
vt 0 1
vt 0.541003 1
vt 0.269931 0.967478
vt 0 0.96808
vt 0.261395 0.480716
vt 0 0.479248
vt 0.522791 0.482184
vt 0.540178 0.976556
vt 0.270501 1
vt 0 1
vt 0.541003 1
vt 0.269931 0.967478
vt 0.261395 0.480716
vt 0 0.96808
vt 0 0.479248
vt 0.522791 0.482184
vt 0.540178 0.976556
vt 0.270501 1
vt 0 1
vt 0.541003 1
vt 0.269931 0.967478
vt 0 0.96808
vt 0.261395 0.480716
vt 0 0.479248
vt 0.522791 0.482184
vt 0.540178 0.976556
vt 0.270501 1
vt 0 1
vt 0.541003 1
vt 0.212747 0.431268
vt 0.212747 0.031292
vt 0 0.425375
vt 0 0.031292
vt 0 0.465837
vt 0.212747 0.467241
vt 0.212747 0.431268
vt 0 0.425375
vt 0.212747 0.031292
vt 0 0.031292
vt 0 0.465837
vt 0.212747 0.467241
vt 0.212747 0.431268
vt 0.212747 0.031292
vt 0 0.425375
vt 0 0.031292
vt 0 0.465837
vt 0.212747 0.467241
vt 0.212747 0.431268
vt 0 0.425375
vt 0.212747 0.031292
vt 0 0.031292
vt 0 0.465837
vt 0.212747 0.467241
vt 0.212747 0.431268
vt 0.212747 0.031292
vt 0 0.425375
vt 0 0.031292
vt 0 0.465837
vt 0.212747 0.467241
vt 0.212747 0.431268
vt 0 0.425375
vt 0.212747 0.031292
vt 0 0.031292
vt 0 0.465837
vt 0.212747 0.467241
vt 0.212747 0.431268
vt 0.212747 0.031292
vt 0 0.425375
vt 0 0.031292
vt 0 0.465837
vt 0.212747 0.467241
vt 0.212747 0.431268
vt 0 0.425375
vt 0.212747 0.031292
vt 0 0.031292
vt 0 0.465837
vt 0.212747 0.467241
vt 0.5 0.440807
vt 0.5 0.003815
vt 0.25 0.437527
vt 0.25 0.003815
vt 0.25 0.47493
vt 0.5 0.476334
vt 0.5 0.440807
vt 0.25 0.437527
vt 0.5 0.003815
vt 0.25 0.003815
vt 0.25 0.47493
vt 0.5 0.476334
vt 0.764305 0.444435
vt 0.764305 0.015497
vt 0.538147 0.441285
vt 0.538147 0.015497
vt 0.538147 0.472519
vt 0.764305 0.473923
vt 0.764305 0.444435
vt 0.538147 0.441285
vt 0.764305 0.015497
vt 0.538147 0.015497
vt 0.538147 0.472519
vt 0.764305 0.473923
vt 0.992177 0.448377
vt 0.992177 0.047684
vt 0.818619 0.445216
vt 0.818619 0.047684
vt 0.818619 0.479883
vt 0.992177 0.481287
vt 0.992177 0.448377
vt 0.818619 0.445216
vt 0.992177 0.047684
vt 0.818619 0.047684
vt 0.818619 0.479883
vt 0.992177 0.481287
vt 0.992177 0.448377
vt 0.992177 0.047684
vt 0.818619 0.445216
vt 0.818619 0.047684
vt 0.818619 0.479883
vt 0.992177 0.481287
vt 0.992177 0.448377
vt 0.818619 0.445216
vt 0.992177 0.047684
vt 0.818619 0.047684
vt 0.818619 0.479883
vt 0.992177 0.481287
vt 0.992177 0.448377
vt 0.992177 0.047684
vt 0.818619 0.445216
vt 0.818619 0.047684
vt 0.818619 0.479883
vt 0.992177 0.481287
vt 0.992177 0.448377
vt 0.818619 0.445216
vt 0.992177 0.047684
vt 0.818619 0.047684
vt 0.818619 0.479883
vt 0.992177 0.481287
vt 0.992177 0.448377
vt 0.992177 0.047684
vt 0.818619 0.445216
vt 0.818619 0.047684
vt 0.818619 0.479883
vt 0.992177 0.481287
vt 0.992177 0.448377
vt 0.818619 0.445216
vt 0.992177 0.047684
vt 0.818619 0.047684
vt 0.818619 0.479883
vt 0.992177 0.481287
vt 0.992177 0.448377
vt 0.992177 0.047684
vt 0.818619 0.445216
vt 0.818619 0.047684
vt 0.818619 0.479883
vt 0.992177 0.481287
vt 0.992177 0.448377
vt 0.818619 0.445216
vt 0.992177 0.047684
vt 0.818619 0.047684
vt 0.818619 0.479883
vt 0.992177 0.481287
vt 0.992177 0.448377
vt 0.992177 0.047684
vt 0.818619 0.445216
vt 0.818619 0.047684
vt 0.818619 0.479883
vt 0.992177 0.481287
vt 0.992177 0.448377
vt 0.818619 0.445216
vt 0.992177 0.047684
vt 0.818619 0.047684
vt 0.818619 0.479883
vt 0.992177 0.481287
vt 0.992177 0.448377
vt 0.992177 0.047684
vt 0.818619 0.445216
vt 0.818619 0.047684
vt 0.818619 0.479883
vt 0.992177 0.481287
vt 0.992177 0.448377
vt 0.818619 0.445216
vt 0.992177 0.047684
vt 0.818619 0.047684
vt 0.818619 0.479883
vt 0.992177 0.481287




usemtl Iceicle_Dif
usemap Iceicle_Dif
f 6/6/6 9/9/9 7/7/7
f 6/6/6 7/7/7 1/1/1
f 1/1/1 7/7/7 3/3/3
f 1/1/1 3/3/3 2/2/2
f 2/2/2 3/3/3 4/4/4
f 8/8/8 3/3/3 7/7/7
f 12/12/12 13/13/13 11/11/11
f 12/12/12 11/11/11 10/10/10
f 10/10/10 11/11/11 16/16/16
f 10/10/10 16/16/16 15/15/15
f 15/15/15 16/16/16 18/18/18
f 17/17/17 16/16/16 11/11/11
f 24/24/24 27/27/27 25/25/25
f 24/24/24 25/25/25 19/19/19
f 19/19/19 25/25/25 21/21/21
f 19/19/19 21/21/21 20/20/20
f 20/20/20 21/21/21 22/22/22
f 26/26/26 21/21/21 25/25/25
f 30/30/30 31/31/31 29/29/29
f 30/30/30 29/29/29 28/28/28
f 28/28/28 29/29/29 34/34/34
f 28/28/28 34/34/34 33/33/33
f 33/33/33 34/34/34 36/36/36
f 35/35/35 34/34/34 29/29/29
f 42/42/42 45/45/45 43/43/43
f 42/42/42 43/43/43 37/37/37
f 37/37/37 43/43/43 39/39/39
f 37/37/37 39/39/39 38/38/38
f 38/38/38 39/39/39 40/40/40
f 43/43/43 44/44/44 39/39/39
f 48/48/48 49/49/49 47/47/47
f 48/48/48 47/47/47 46/46/46
f 46/46/46 47/47/47 52/52/52
f 46/46/46 52/52/52 51/51/51
f 51/51/51 52/52/52 54/54/54
f 52/52/52 47/47/47 53/53/53
f 60/60/60 63/63/63 61/61/61
f 60/60/60 61/61/61 55/55/55
f 55/55/55 61/61/61 57/57/57
f 55/55/55 57/57/57 56/56/56
f 56/56/56 57/57/57 58/58/58
f 61/61/61 62/62/62 57/57/57
f 66/66/66 67/67/67 65/65/65
f 66/66/66 65/65/65 64/64/64
f 64/64/64 65/65/65 70/70/70
f 64/64/64 70/70/70 69/69/69
f 69/69/69 70/70/70 72/72/72
f 70/70/70 65/65/65 71/71/71
f 78/78/78 77/77/77 73/73/73
f 73/73/73 77/77/77 75/75/75
f 73/73/73 75/75/75 74/74/74
f 74/74/74 75/75/75 76/76/76
f 83/83/83 84/84/84 79/79/79
f 83/83/83 79/79/79 80/80/80
f 80/80/80 79/79/79 81/81/81
f 80/80/80 81/81/81 82/82/82
f 90/90/90 89/89/89 85/85/85
f 85/85/85 89/89/89 87/87/87
f 85/85/85 87/87/87 86/86/86
f 86/86/86 87/87/87 88/88/88
f 95/95/95 96/96/96 91/91/91
f 95/95/95 91/91/91 92/92/92
f 92/92/92 91/91/91 93/93/93
f 92/92/92 93/93/93 94/94/94
f 102/102/102 101/101/101 97/97/97
f 97/97/97 101/101/101 99/99/99
f 97/97/97 99/99/99 98/98/98
f 98/98/98 99/99/99 100/100/100
f 107/107/107 108/108/108 103/103/103
f 107/107/107 103/103/103 104/104/104
f 104/104/104 103/103/103 105/105/105
f 104/104/104 105/105/105 106/106/106
f 114/114/114 113/113/113 109/109/109
f 109/109/109 113/113/113 111/111/111
f 109/109/109 111/111/111 110/110/110
f 110/110/110 111/111/111 112/112/112
f 119/119/119 120/120/120 115/115/115
f 119/119/119 115/115/115 116/116/116
f 116/116/116 115/115/115 117/117/117
f 116/116/116 117/117/117 118/118/118
f 126/126/126 125/125/125 121/121/121
f 121/121/121 125/125/125 123/123/123
f 121/121/121 123/123/123 122/122/122
f 122/122/122 123/123/123 124/124/124
f 131/131/131 132/132/132 127/127/127
f 131/131/131 127/127/127 128/128/128
f 128/128/128 127/127/127 129/129/129
f 128/128/128 129/129/129 130/130/130
f 138/138/138 137/137/137 133/133/133
f 133/133/133 137/137/137 135/135/135
f 133/133/133 135/135/135 134/134/134
f 134/134/134 135/135/135 136/136/136
f 143/143/143 144/144/144 139/139/139
f 143/143/143 139/139/139 140/140/140
f 140/140/140 139/139/139 141/141/141
f 140/140/140 141/141/141 142/142/142
f 150/150/150 149/149/149 145/145/145
f 145/145/145 149/149/149 147/147/147
f 145/145/145 147/147/147 146/146/146
f 146/146/146 147/147/147 148/148/148
f 155/155/155 156/156/156 151/151/151
f 155/155/155 151/151/151 152/152/152
f 152/152/152 151/151/151 153/153/153
f 152/152/152 153/153/153 154/154/154
f 162/162/162 161/161/161 157/157/157
f 157/157/157 161/161/161 159/159/159
f 157/157/157 159/159/159 158/158/158
f 158/158/158 159/159/159 160/160/160
f 167/167/167 168/168/168 163/163/163
f 167/167/167 163/163/163 164/164/164
f 164/164/164 163/163/163 165/165/165
f 164/164/164 165/165/165 166/166/166
f 174/174/174 173/173/173 169/169/169
f 169/169/169 173/173/173 171/171/171
f 169/169/169 171/171/171 170/170/170
f 170/170/170 171/171/171 172/172/172
f 179/179/179 180/180/180 175/175/175
f 179/179/179 175/175/175 176/176/176
f 176/176/176 175/175/175 177/177/177
f 176/176/176 177/177/177 178/178/178
f 186/186/186 185/185/185 181/181/181
f 181/181/181 185/185/185 183/183/183
f 181/181/181 183/183/183 182/182/182
f 182/182/182 183/183/183 184/184/184
f 191/191/191 192/192/192 187/187/187
f 191/191/191 187/187/187 188/188/188
f 188/188/188 187/187/187 189/189/189
f 188/188/188 189/189/189 190/190/190
f 198/198/198 197/197/197 193/193/193
f 193/193/193 197/197/197 195/195/195
f 193/193/193 195/195/195 194/194/194
f 194/194/194 195/195/195 196/196/196
f 203/203/203 204/204/204 199/199/199
f 203/203/203 199/199/199 200/200/200
f 200/200/200 199/199/199 201/201/201
f 200/200/200 201/201/201 202/202/202
f 210/210/210 209/209/209 205/205/205
f 205/205/205 209/209/209 207/207/207
f 205/205/205 207/207/207 206/206/206
f 206/206/206 207/207/207 208/208/208
f 215/215/215 216/216/216 211/211/211
f 215/215/215 211/211/211 212/212/212
f 212/212/212 211/211/211 213/213/213
f 212/212/212 213/213/213 214/214/214
f 222/222/222 221/221/221 217/217/217
f 217/217/217 221/221/221 219/219/219
f 217/217/217 219/219/219 218/218/218
f 218/218/218 219/219/219 220/220/220
f 227/227/227 228/228/228 223/223/223
f 227/227/227 223/223/223 224/224/224
f 224/224/224 223/223/223 225/225/225
f 224/224/224 225/225/225 226/226/226
f 1/1/1 2/2/2 5/5/5
f 1/1/1 5/5/5 6/6/6
f 14/14/14 12/12/12 10/10/10
f 14/14/14 10/10/10 15/15/15
f 19/19/19 20/20/20 23/23/23
f 19/19/19 23/23/23 24/24/24
f 32/32/32 30/30/30 28/28/28
f 32/32/32 28/28/28 33/33/33
f 37/37/37 38/38/38 41/41/41
f 37/37/37 41/41/41 42/42/42
f 50/50/50 48/48/48 46/46/46
f 50/50/50 46/46/46 51/51/51
f 55/55/55 56/56/56 59/59/59
f 55/55/55 59/59/59 60/60/60
f 68/68/68 66/66/66 64/64/64
f 68/68/68 64/64/64 69/69/69

