g NewMesh_tris_120
v -0.02951282 0.008426657 -0.2828733
v 0.09699796 -7.156627 -0.6201518
v 2.603314 -0.1420639 -0.1569684
v 2.723133 -7.154532 -0.6065403
v -2.553167 -7.156309 0.1141293
v -2.53547 -0.1278818 0.3315531
v 0.02136546 0.3299614 0.3540545
v 2.586833 -0.1177924 0.1372564
v -2.508059 0.1552379 0.6226947
v -0.02951282 0.008426657 -0.2828733
v 2.603314 -0.1420639 -0.1569684
v 0.09699796 -7.156627 -0.6201518
v 2.723133 -7.154532 -0.6065403
v -2.553167 -7.156309 0.1141293
v -2.53547 -0.1278818 0.3315531
v 0.02136546 0.3299614 0.3540545
v 2.586833 -0.1177924 0.1372564
v -2.508059 0.1552379 0.6226947
v 20.71975 0.3862519 -32.91034
v 20.78868 -7.162724 -32.70383
v 19.55136 0.1704326 -34.16299
v 19.55507 -7.219835 -33.88149
v 22.4444 -7.089109 -32.00133
v 22.24747 0.3106675 -32.19333
v 21.03152 0.7348888 -33.3487
v 19.71971 0.2016271 -34.34693
v 22.38205 0.613207 -32.39638
v 20.71975 0.3862519 -32.91034
v 19.55136 0.1704326 -34.16299
v 20.78868 -7.162724 -32.70383
v 19.55507 -7.219835 -33.88149
v 22.4444 -7.089109 -32.00133
v 22.24747 0.3106675 -32.19333
v 21.03152 0.7348888 -33.3487
v 19.71971 0.2016271 -34.34693
v 22.38205 0.613207 -32.39638
v 60.43474 -4.493982 39.78014
v 60.8091 -10.52098 39.35868
v 62.02955 -4.733704 42.05353
v 62.49325 -10.62825 41.56067
v 58.48408 -10.43538 37.61896
v 58.30325 -4.525425 38.07766
v 59.93455 -4.24638 40.24721
v 61.77286 -4.722298 42.23053
v 58.07709 -4.297784 38.30052
v 60.43474 -4.493982 39.78014
v 62.02955 -4.733704 42.05353
v 60.8091 -10.52098 39.35868
v 62.49325 -10.62825 41.56067
v 58.48408 -10.43538 37.61896
v 58.30325 -4.525425 38.07766
v 59.93455 -4.24638 40.24721
v 61.77286 -4.722298 42.23053
v 58.07709 -4.297784 38.30052
v 46.93889 -5.348946 26.31423
v 47.00102 -10.03981 26.23767
v 48.8191 -5.514751 28.21736
v 48.95868 -10.11229 28.05018
v 44.51361 -9.923199 24.96894
v 44.63649 -5.332164 25.05638
v 46.55292 -5.10524 26.82231
v 48.60629 -5.481998 28.42618
v 44.46817 -5.132178 25.28978
v 46.93889 -5.348946 26.31423
v 48.8191 -5.514751 28.21736
v 47.00102 -10.03981 26.23767
v 48.95868 -10.11229 28.05018
v 44.51361 -9.923199 24.96894
v 44.63649 -5.332164 25.05638
v 46.55292 -5.10524 26.82231
v 48.60629 -5.481998 28.42618
v 44.46817 -5.132178 25.28978
v 55.43861 3.9092 -10.884
v 54.69418 -4.692726 -10.48061
v 53.68991 3.705297 -13.53324
v 52.84784 -4.706192 -13.05007
v 57.28585 -4.721468 -8.416606
v 57.80523 3.722476 -8.870319
v 56.03739 4.257267 -11.39685
v 53.98917 3.716796 -13.72618
v 58.0822 4.045376 -9.114272
v 55.43861 3.9092 -10.884
v 53.68991 3.705297 -13.53324
v 54.69418 -4.692726 -10.48061
v 52.84784 -4.706192 -13.05007
v 57.28585 -4.721468 -8.416606
v 57.80523 3.722476 -8.870319
v 56.03739 4.257267 -11.39685
v 53.98917 3.716796 -13.72618
v 58.0822 4.045376 -9.114272
v 2.473177 -0.1319179 -0.7116814
v 2.398775 -4.916823 -0.6843749
v 5.967141 -0.2085923 -1.154858
v 5.892754 -4.973695 -1.129962
v 6.02224 0.1418881 -0.7550787
v 2.528262 0.1987601 -0.3094916
v 2.473177 -0.1319179 -0.7116814
v 5.967141 -0.2085923 -1.154858
v 2.398775 -4.916823 -0.6843749
v 5.892754 -4.973695 -1.129962
v 6.02224 0.1418881 -0.7550787
v 2.528262 0.1987601 -0.3094916
v 53.85609 3.602111 -13.22005
v 53.51637 -2.135281 -12.76109
v 50.83265 3.518954 -16.19767
v 50.49238 -2.19441 -15.73863
v 51.19981 3.88958 -16.57521
v 54.2238 3.94871 -13.59767
v 53.85609 3.602111 -13.22005
v 50.83265 3.518954 -16.19767
v 53.51637 -2.135281 -12.76109
v 50.49238 -2.19441 -15.73863
v 51.19981 3.88958 -16.57521
v 54.2238 3.94871 -13.59767
v 64.04247 -5.176389 43.834
v 63.99366 -9.025528 43.77078
v 65.70975 -5.251094 46.12454
v 65.66266 -9.084297 46.06048
v 65.44938 -4.970167 46.31997
v 63.78038 -4.911398 44.03027
v 64.04247 -5.176389 43.834
v 65.70975 -5.251094 46.12454
v 63.99366 -9.025528 43.77078
v 65.66266 -9.084297 46.06048
v 65.44938 -4.970167 46.31997
v 63.78038 -4.911398 44.03027
v 59.6682 3.919188 -7.310963
v 58.76537 -0.2930985 -6.452876
v 58.20663 3.861444 -9.061625
v 57.30579 -0.3373008 -8.20554
v 58.45082 3.987587 -9.266832
v 59.91039 4.03179 -7.514168
v 59.6682 3.919188 -7.310963
v 58.20663 3.861444 -9.061625
v 58.76537 -0.2930985 -6.452876
v 57.30579 -0.3373008 -8.20554
v 58.45082 3.987587 -9.266832
v 59.91039 4.03179 -7.514168
v 41.98933 -5.386053 22.72541
v 41.95142 -9.778152 22.77849
v 43.76598 -5.397884 24.15639
v 43.7289 -9.776214 24.20842
v 43.59763 -5.182659 24.36373
v 41.82015 -5.184597 22.9338
v 41.98933 -5.386053 22.72541
v 43.76598 -5.397884 24.15639
v 41.95142 -9.778152 22.77849
v 43.7289 -9.776214 24.20842
v 43.59763 -5.182659 24.36373
v 41.82015 -5.184597 22.9338

vn -0.08137447 0.5765511 -0.8129988
vn -0.1214203 0.0677027 -0.9902896
vn 0.09253776 0.6742975 -0.7326388
vn 0.001512831 0.08535793 -0.9963492
vn -0.25305 0.05080188 -0.9661185
vn -0.1892213 0.4950444 -0.8480132
vn -0.03178172 0.9337177 -0.3565964
vn 0.1216434 0.9910348 -0.05525486
vn -0.1025442 0.8050044 -0.5843394
vn 0.08137447 -0.5765511 0.8129988
vn -0.09253776 -0.6742975 0.7326388
vn 0.1214203 -0.0677027 0.9902896
vn -0.001512831 -0.08535793 0.9963492
vn 0.25305 -0.05080188 0.9661185
vn 0.1892213 -0.4950444 0.8480132
vn 0.03178172 -0.9337177 0.3565964
vn -0.1216434 -0.9910348 0.05525486
vn 0.1025442 -0.8050044 0.5843394
vn -0.5018525 0.5604972 0.6587769
vn -0.5683582 0.04948996 0.8212914
vn -0.5826664 0.6538527 0.4826764
vn -0.6650189 0.06266268 0.744193
vn -0.4532227 0.0377875 0.890596
vn -0.441052 0.4820674 0.7570232
vn -0.2512195 0.9259413 0.2819953
vn -0.1685817 0.9846297 -0.04565979
vn -0.3439283 0.7946749 0.5002051
vn 0.5018525 -0.5604972 -0.6587769
vn 0.5826664 -0.6538527 -0.4826764
vn 0.5683582 -0.04948996 -0.8212914
vn 0.6650189 -0.06266268 -0.744193
vn 0.4532227 -0.0377875 -0.890596
vn 0.441052 -0.4820674 -0.7570232
vn 0.2512195 -0.9259413 -0.2819953
vn 0.1685817 -0.9846297 0.04565979
vn 0.3439283 -0.7946749 -0.5002051
vn 0.5930406 0.6049452 -0.5313604
vn 0.7095196 0.1039784 -0.6969723
vn 0.6356053 0.6931689 -0.3398862
vn 0.7894272 0.1169737 -0.602596
vn 0.6099608 0.09150058 -0.7871311
vn 0.5549423 0.5288979 -0.6421106
vn 0.2616677 0.9451456 -0.1955238
vn 0.1168549 0.9867472 0.1125829
vn 0.3988368 0.8266431 -0.3969764
vn -0.5930406 -0.6049452 0.5313604
vn -0.6356053 -0.6931689 0.3398862
vn -0.7095196 -0.1039784 0.6969723
vn -0.7894272 -0.1169737 0.602596
vn -0.6099608 -0.09150058 0.7871311
vn -0.5549423 -0.5288979 0.6421106
vn -0.2616677 -0.9451456 0.1955238
vn -0.1168549 -0.9867472 -0.1125829
vn -0.3988368 -0.8266431 0.3969764
vn 0.5205796 0.5339399 -0.666262
vn 0.5813494 0.01760555 -0.8134634
vn 0.6002197 0.6309279 -0.4915957
vn 0.6770391 0.03143022 -0.7352756
vn 0.4670958 0.005756075 -0.8841879
vn 0.460017 0.4537414 -0.7632189
vn 0.2701834 0.9136549 -0.3037032
vn 0.1835807 0.982783 0.02087726
vn 0.3640514 0.7748975 -0.5167208
vn -0.5205796 -0.5339399 0.666262
vn -0.6002197 -0.6309279 0.4915957
vn -0.5813494 -0.01760555 0.8134634
vn -0.6770391 -0.03143022 0.7352756
vn -0.4670958 -0.005756075 0.8841879
vn -0.460017 -0.4537414 0.7632189
vn -0.2701834 -0.9136549 0.3037032
vn -0.1835807 -0.982783 -0.02087726
vn -0.3640514 -0.7748975 0.5167208
vn -0.5873935 0.6170343 0.5236769
vn -0.7263758 0.1179289 0.6771048
vn -0.6209733 0.7097872 0.332557
vn -0.8028607 0.1352768 0.580616
vn -0.6301141 0.1004666 0.7699758
vn -0.5553843 0.5379066 0.6341962
vn -0.2341945 0.9505889 0.2037982
vn -0.07867543 0.9919648 -0.09907647
vn -0.3815207 0.8338153 0.398991
vn 0.5873935 -0.6170343 -0.5236769
vn 0.6209733 -0.7097872 -0.332557
vn 0.7263758 -0.1179289 -0.6771048
vn 0.8028607 -0.1352768 -0.580616
vn 0.6301141 -0.1004666 -0.7699758
vn 0.5553843 -0.5379066 -0.6341962
vn 0.2341945 -0.9505889 -0.2037982
vn 0.07867543 -0.9919648 0.09907647
vn 0.3815207 -0.8338153 -0.398991
vn -0.1125126 0.3454995 -0.9316496
vn -0.1267982 -0.03426023 -0.9913367
vn -0.1110408 0.3274651 -0.9383157
vn -0.1269784 -0.03413573 -0.9913179
vn -0.08054449 0.6510789 -0.7547244
vn -0.08263659 0.6740879 -0.734014
vn 0.1125126 -0.3454995 0.9316496
vn 0.1110408 -0.3274651 0.9383157
vn 0.1267982 0.03426023 0.9913367
vn 0.1269784 0.03413573 0.9913179
vn 0.08054449 -0.6510789 0.7547244
vn 0.08263659 -0.6740879 0.734014
vn -0.6351502 0.4391791 0.6353785
vn -0.7008108 0.06758286 0.7101385
vn -0.6425973 0.4218968 0.6395871
vn -0.7006757 0.06770676 0.7102599
vn -0.4939793 0.7249277 0.4800669
vn -0.4747846 0.7457444 0.4673807
vn 0.6351502 -0.4391791 -0.6353785
vn 0.6425973 -0.4218968 -0.6395871
vn 0.7008108 -0.06758286 -0.7101385
vn 0.7006757 -0.06770676 -0.7102599
vn 0.4939793 -0.7249277 -0.4800669
vn 0.4747846 -0.7457444 -0.4673807
vn 0.7620995 0.348397 -0.5457323
vn 0.80744 -0.03113592 -0.5891274
vn 0.7686463 0.3303723 -0.5477561
vn 0.8073367 -0.03101058 -0.5892755
vn 0.6225501 0.6533678 -0.4307456
vn 0.6034003 0.6763347 -0.422468
vn -0.7620995 -0.348397 0.5457323
vn -0.7686463 -0.3303723 0.5477561
vn -0.80744 0.03113592 0.5891274
vn -0.8073367 0.03101058 0.5892755
vn -0.6225501 -0.6533678 0.4307456
vn -0.6034003 -0.6763347 0.422468
vn -0.5992535 0.6390674 0.4821703
vn -0.7440615 0.266265 0.6127604
vn -0.611 0.62277 0.4887089
vn -0.7439717 0.2663261 0.612843
vn -0.3741818 0.8833047 0.2824197
vn -0.3480186 0.8986155 0.2671574
vn 0.5992535 -0.6390674 -0.4821703
vn 0.611 -0.62277 -0.4887089
vn 0.7440615 -0.266265 -0.6127604
vn 0.7439717 -0.2663261 -0.612843
vn 0.3741818 -0.8833047 -0.2824197
vn 0.3480186 -0.8986155 -0.2671574
vn 0.5795261 0.381818 -0.7199754
vn 0.6266092 -0.03211764 -0.7786716
vn 0.5866075 0.3623827 -0.7242723
vn 0.6265153 -0.03205686 -0.7787497
vn 0.4484954 0.7045323 -0.5499876
vn 0.429297 0.7279275 -0.5346266
vn -0.5795261 -0.381818 0.7199754
vn -0.5866075 -0.3623827 0.7242723
vn -0.6266092 0.03211764 0.7786716
vn -0.6265153 0.03205686 0.7787497
vn -0.4484954 -0.7045323 0.5499876
vn -0.429297 -0.7279275 0.5346266

vt 0.729836 0.968822
vt 0.716889 0.4835
vt 0.540142 0.975514
vt 0.522791 0.482184
vt 0.918043 0.484863
vt 0.918043 0.962797
vt 0.730668 1
vt 0.541003 1
vt 0.918043 1
vt 0.729836 0.968822
vt 0.540142 0.975514
vt 0.716889 0.4835
vt 0.522791 0.482184
vt 0.918043 0.484863
vt 0.918043 0.962797
vt 0.730668 1
vt 0.541003 1
vt 0.918043 1
vt 0.729836 0.968822
vt 0.716889 0.4835
vt 0.540142 0.975514
vt 0.522791 0.482184
vt 0.918043 0.484863
vt 0.918043 0.962797
vt 0.730668 1
vt 0.541003 1
vt 0.918043 1
vt 0.729836 0.968822
vt 0.540142 0.975514
vt 0.716889 0.4835
vt 0.522791 0.482184
vt 0.918043 0.484863
vt 0.918043 0.962797
vt 0.730668 1
vt 0.541003 1
vt 0.918043 1
vt 0.729836 0.968822
vt 0.716889 0.4835
vt 0.540142 0.975514
vt 0.522791 0.482184
vt 0.918043 0.484863
vt 0.918043 0.962797
vt 0.730668 1
vt 0.541003 1
vt 0.918043 1
vt 0.729836 0.968822
vt 0.540142 0.975514
vt 0.716889 0.4835
vt 0.522791 0.482184
vt 0.918043 0.484863
vt 0.918043 0.962797
vt 0.730668 1
vt 0.541003 1
vt 0.918043 1
vt 0.729836 0.968822
vt 0.716889 0.4835
vt 0.540142 0.975514
vt 0.522791 0.482184
vt 0.918043 0.484863
vt 0.918043 0.962797
vt 0.730668 1
vt 0.541003 1
vt 0.918043 1
vt 0.729836 0.968822
vt 0.540142 0.975514
vt 0.716889 0.4835
vt 0.522791 0.482184
vt 0.918043 0.484863
vt 0.918043 0.962797
vt 0.730668 1
vt 0.541003 1
vt 0.918043 1
vt 0.729836 0.968822
vt 0.716889 0.4835
vt 0.540142 0.975514
vt 0.522791 0.482184
vt 0.918043 0.484863
vt 0.918043 0.962797
vt 0.730668 1
vt 0.541003 1
vt 0.918043 1
vt 0.729836 0.968822
vt 0.540142 0.975514
vt 0.716889 0.4835
vt 0.522791 0.482184
vt 0.918043 0.484863
vt 0.918043 0.962797
vt 0.730668 1
vt 0.541003 1
vt 0.918043 1
vt 0.764305 0.444435
vt 0.764305 0.015497
vt 0.538147 0.441285
vt 0.538147 0.015497
vt 0.538147 0.472519
vt 0.764305 0.473923
vt 0.764305 0.444435
vt 0.538147 0.441285
vt 0.764305 0.015497
vt 0.538147 0.015497
vt 0.538147 0.472519
vt 0.764305 0.473923
vt 0.764305 0.444435
vt 0.764305 0.015497
vt 0.538147 0.441285
vt 0.538147 0.015497
vt 0.538147 0.472519
vt 0.764305 0.473923
vt 0.764305 0.444435
vt 0.538147 0.441285
vt 0.764305 0.015497
vt 0.538147 0.015497
vt 0.538147 0.472519
vt 0.764305 0.473923
vt 0.764305 0.444435
vt 0.764305 0.015497
vt 0.538147 0.441285
vt 0.538147 0.015497
vt 0.538147 0.472519
vt 0.764305 0.473923
vt 0.764305 0.444435
vt 0.538147 0.441285
vt 0.764305 0.015497
vt 0.538147 0.015497
vt 0.538147 0.472519
vt 0.764305 0.473923
vt 0.992177 0.448377
vt 0.992177 0.047684
vt 0.818619 0.445216
vt 0.818619 0.047684
vt 0.818619 0.479883
vt 0.992177 0.481287
vt 0.992177 0.448377
vt 0.818619 0.445216
vt 0.992177 0.047684
vt 0.818619 0.047684
vt 0.818619 0.479883
vt 0.992177 0.481287
vt 0.992177 0.448377
vt 0.992177 0.047684
vt 0.818619 0.445216
vt 0.818619 0.047684
vt 0.818619 0.479883
vt 0.992177 0.481287
vt 0.992177 0.448377
vt 0.818619 0.445216
vt 0.992177 0.047684
vt 0.818619 0.047684
vt 0.818619 0.479883
vt 0.992177 0.481287




usemtl Iceicle_Dif
usemap Iceicle_Dif
f 6/6/6 9/9/9 7/7/7
f 6/6/6 7/7/7 1/1/1
f 1/1/1 7/7/7 3/3/3
f 1/1/1 3/3/3 2/2/2
f 2/2/2 3/3/3 4/4/4
f 8/8/8 3/3/3 7/7/7
f 12/12/12 13/13/13 11/11/11
f 12/12/12 11/11/11 10/10/10
f 10/10/10 11/11/11 16/16/16
f 10/10/10 16/16/16 15/15/15
f 15/15/15 16/16/16 18/18/18
f 17/17/17 16/16/16 11/11/11
f 24/24/24 27/27/27 25/25/25
f 24/24/24 25/25/25 19/19/19
f 19/19/19 25/25/25 21/21/21
f 19/19/19 21/21/21 20/20/20
f 20/20/20 21/21/21 22/22/22
f 26/26/26 21/21/21 25/25/25
f 30/30/30 31/31/31 29/29/29
f 30/30/30 29/29/29 28/28/28
f 28/28/28 29/29/29 34/34/34
f 28/28/28 34/34/34 33/33/33
f 33/33/33 34/34/34 36/36/36
f 35/35/35 34/34/34 29/29/29
f 42/42/42 45/45/45 43/43/43
f 42/42/42 43/43/43 37/37/37
f 37/37/37 43/43/43 39/39/39
f 37/37/37 39/39/39 38/38/38
f 38/38/38 39/39/39 40/40/40
f 44/44/44 39/39/39 43/43/43
f 48/48/48 49/49/49 47/47/47
f 48/48/48 47/47/47 46/46/46
f 46/46/46 47/47/47 52/52/52
f 46/46/46 52/52/52 51/51/51
f 51/51/51 52/52/52 54/54/54
f 53/53/53 52/52/52 47/47/47
f 60/60/60 63/63/63 61/61/61
f 60/60/60 61/61/61 55/55/55
f 55/55/55 61/61/61 57/57/57
f 55/55/55 57/57/57 56/56/56
f 56/56/56 57/57/57 58/58/58
f 62/62/62 57/57/57 61/61/61
f 66/66/66 67/67/67 65/65/65
f 66/66/66 65/65/65 64/64/64
f 64/64/64 65/65/65 70/70/70
f 64/64/64 70/70/70 69/69/69
f 69/69/69 70/70/70 72/72/72
f 71/71/71 70/70/70 65/65/65
f 78/78/78 81/81/81 79/79/79
f 78/78/78 79/79/79 73/73/73
f 73/73/73 79/79/79 75/75/75
f 73/73/73 75/75/75 74/74/74
f 74/74/74 75/75/75 76/76/76
f 80/80/80 75/75/75 79/79/79
f 84/84/84 85/85/85 83/83/83
f 84/84/84 83/83/83 82/82/82
f 82/82/82 83/83/83 88/88/88
f 82/82/82 88/88/88 87/87/87
f 87/87/87 88/88/88 90/90/90
f 89/89/89 88/88/88 83/83/83
f 96/96/96 95/95/95 91/91/91
f 91/91/91 95/95/95 93/93/93
f 91/91/91 93/93/93 92/92/92
f 92/92/92 93/93/93 94/94/94
f 101/101/101 102/102/102 97/97/97
f 101/101/101 97/97/97 98/98/98
f 98/98/98 97/97/97 99/99/99
f 98/98/98 99/99/99 100/100/100
f 108/108/108 107/107/107 103/103/103
f 103/103/103 107/107/107 105/105/105
f 103/103/103 105/105/105 104/104/104
f 104/104/104 105/105/105 106/106/106
f 113/113/113 114/114/114 109/109/109
f 113/113/113 109/109/109 110/110/110
f 110/110/110 109/109/109 111/111/111
f 110/110/110 111/111/111 112/112/112
f 120/120/120 119/119/119 115/115/115
f 115/115/115 119/119/119 117/117/117
f 115/115/115 117/117/117 116/116/116
f 116/116/116 117/117/117 118/118/118
f 125/125/125 126/126/126 121/121/121
f 125/125/125 121/121/121 122/122/122
f 122/122/122 121/121/121 123/123/123
f 122/122/122 123/123/123 124/124/124
f 132/132/132 131/131/131 127/127/127
f 127/127/127 131/131/131 129/129/129
f 127/127/127 129/129/129 128/128/128
f 128/128/128 129/129/129 130/130/130
f 137/137/137 138/138/138 133/133/133
f 137/137/137 133/133/133 134/134/134
f 134/134/134 133/133/133 135/135/135
f 134/134/134 135/135/135 136/136/136
f 144/144/144 143/143/143 139/139/139
f 139/139/139 143/143/143 141/141/141
f 139/139/139 141/141/141 140/140/140
f 140/140/140 141/141/141 142/142/142
f 149/149/149 150/150/150 145/145/145
f 149/149/149 145/145/145 146/146/146
f 146/146/146 145/145/145 147/147/147
f 146/146/146 147/147/147 148/148/148
f 1/1/1 2/2/2 5/5/5
f 1/1/1 5/5/5 6/6/6
f 14/14/14 12/12/12 10/10/10
f 14/14/14 10/10/10 15/15/15
f 19/19/19 20/20/20 23/23/23
f 19/19/19 23/23/23 24/24/24
f 32/32/32 30/30/30 28/28/28
f 32/32/32 28/28/28 33/33/33
f 37/37/37 38/38/38 41/41/41
f 37/37/37 41/41/41 42/42/42
f 50/50/50 48/48/48 46/46/46
f 50/50/50 46/46/46 51/51/51
f 55/55/55 56/56/56 59/59/59
f 55/55/55 59/59/59 60/60/60
f 68/68/68 66/66/66 64/64/64
f 68/68/68 64/64/64 69/69/69
f 73/73/73 74/74/74 77/77/77
f 73/73/73 77/77/77 78/78/78
f 86/86/86 84/84/84 82/82/82
f 86/86/86 82/82/82 87/87/87

