g NewMesh_tris_112
v -45.69719 -7.755522 8.002644
v -45.65881 -20.14001 8.93663
v -47.1097 -7.744037 12.82507
v -46.85753 -19.8716 13.78519
v -45.78133 -20.36655 3.709129
v -45.68037 -8.210039 3.105789
v -46.83176 -7.160719 7.787323
v -47.62469 -7.687976 12.66122
v -46.19123 -7.702517 3.004608
v -45.69719 -7.755522 8.002644
v -47.1097 -7.744037 12.82507
v -45.65881 -20.14001 8.93663
v -46.85753 -19.8716 13.78519
v -45.78133 -20.36655 3.709129
v -45.68037 -8.210039 3.105789
v -46.83176 -7.160719 7.787323
v -47.62469 -7.687976 12.66122
v -46.19123 -7.702517 3.004608
v -33.91367 -9.67299 -41.22689
v -33.31568 -17.83136 -40.62638
v -37.89227 -9.661389 -35.75344
v -37.10068 -17.83136 -35.28599
v -30.05035 -17.83136 -46.27368
v -31.03785 -9.52194 -47.36074
v -34.75413 -9.134624 -41.73975
v -38.48218 -9.297245 -36.03804
v -31.34659 -9.345157 -47.56939
v -33.91367 -9.67299 -41.22689
v -37.89227 -9.661389 -35.75344
v -33.31568 -17.83136 -40.62638
v -37.10068 -17.83136 -35.28599
v -30.05035 -17.83136 -46.27368
v -31.03785 -9.52194 -47.36074
v -34.75413 -9.134624 -41.73975
v -38.48218 -9.297245 -36.03804
v -31.34659 -9.345157 -47.56939
v -25.30808 -10.81592 -67.11052
v -25.10543 -17.12764 -66.67726
v -26.62907 -10.58861 -62.06353
v -26.32534 -16.91966 -61.77979
v -24.34431 -17.30882 -71.65028
v -24.95539 -10.86115 -72.32774
v -26.02869 -10.35811 -67.25567
v -27.11441 -10.27772 -62.11092
v -25.22679 -10.70917 -72.39519
v -25.30808 -10.81592 -67.11052
v -26.62907 -10.58861 -62.06353
v -25.10543 -17.12764 -66.67726
v -26.32534 -16.91966 -61.77979
v -24.34431 -17.30882 -71.65028
v -24.95539 -10.86115 -72.32774
v -26.02869 -10.35811 -67.25567
v -27.11441 -10.27772 -62.11092
v -25.22679 -10.70917 -72.39519
v -27.5818 -9.357046 -52.4221
v -26.76886 -15.3157 -52.11471
v -29.86983 -9.544079 -48.64608
v -29.06073 -15.4336 -48.33887
v -30.26662 -9.096754 -48.87296
v -27.97474 -8.978855 -52.6488
v -27.5818 -9.357046 -52.4221
v -29.86983 -9.544079 -48.64608
v -26.76886 -15.3157 -52.11471
v -29.06073 -15.4336 -48.33887
v -30.26662 -9.096754 -48.87296
v -27.97474 -8.978855 -52.6488
v -43.7383 -7.745609 -11.54846
v -42.96552 -14.4999 -11.44974
v -44.3518 -7.766958 -6.745808
v -43.57907 -14.4999 -6.647091
v -44.95562 -7.477601 -6.825134
v -44.34206 -7.477601 -11.62778
v -43.7383 -7.745609 -11.54846
v -44.3518 -7.766958 -6.745808
v -42.96552 -14.4999 -11.44974
v -43.57907 -14.4999 -6.647091
v -44.95562 -7.477601 -6.825134
v -44.34206 -7.477601 -11.62778
v -10.69576 0.1563606 18.74707
v -11.36684 -9.320672 18.29025
v -8.901833 -0.07352448 15.35005
v -9.712486 -9.342972 14.83534
v -12.08845 -9.330803 22.23312
v -11.4855 -0.03036451 22.42505
v -9.842564 0.5513144 19.07231
v -8.538221 -0.05532074 15.55156
v -11.08678 0.330492 22.56984
v -10.69576 0.1563606 18.74707
v -8.901833 -0.07352448 15.35005
v -11.36684 -9.320672 18.29025
v -9.712486 -9.342972 14.83534
v -12.08845 -9.330803 22.23312
v -11.4855 -0.03036451 22.42505
v -9.842564 0.5513144 19.07231
v -8.538221 -0.05532074 15.55156
v -11.08678 0.330492 22.56984
v 8.478552 4.76357 -24.53957
v 8.1516 -4.714105 -24.87593
v 9.457269 4.583329 -26.46723
v 9.016232 -4.691444 -26.83789
v 8.028811 -4.740623 -22.6176
v 8.281791 4.558448 -22.43608
v 9.134779 5.183605 -24.33544
v 9.746933 4.612621 -26.34499
v 8.583668 4.930645 -22.34367
v 8.478552 4.76357 -24.53957
v 9.457269 4.583329 -26.46723
v 8.1516 -4.714105 -24.87593
v 9.016232 -4.691444 -26.83789
v 8.028811 -4.740623 -22.6176
v 8.281791 4.558448 -22.43608
v 9.134779 5.183605 -24.33544
v 9.746933 4.612621 -26.34499
v 8.583668 4.930645 -22.34367
v 6.84904 4.880682 -18.92397
v 6.355225 -0.8579211 -19.1853
v 8.390755 4.904113 -22.87832
v 7.896395 -0.810462 -23.13958
v 8.878609 5.275657 -22.68168
v 7.337439 5.228198 -18.72741
v 6.84904 4.880682 -18.92397
v 8.390755 4.904113 -22.87832
v 6.355225 -0.8579211 -19.1853
v 7.896395 -0.810462 -23.13958
v 8.878609 5.275657 -22.68168
v 7.337439 5.228198 -18.72741
v -1.940139 0.1311066 0.3805463
v -2.508093 -7.205295 0.4719706
v 1.699319 -0.1877999 -0.7416711
v 1.132588 -7.501153 -0.6523483
v 1.858215 0.1602251 -0.3129101
v -1.782466 0.4560829 0.8114088
v -1.940139 0.1311066 0.3805463
v 1.699319 -0.1877999 -0.7416711
v -2.508093 -7.205295 0.4719706
v 1.132588 -7.501153 -0.6523483
v 1.858215 0.1602251 -0.3129101
v -1.782466 0.4560829 0.8114088

vn 0.831917 0.5474605 0.09055884
vn 0.9926317 0.03224734 0.1167999
vn 0.7165284 0.6565635 0.235609
vn 0.969959 0.05618829 0.2366906
vn 0.9998318 0.009128828 -0.01590255
vn 0.8882364 0.4593822 -0.002018871
vn 0.3918716 0.9199231 0.01334391
vn 0.06527229 0.9940408 0.08730793
vn 0.6244408 0.7810557 0.005054066
vn -0.831917 -0.5474605 -0.09055884
vn -0.7165284 -0.6565635 -0.235609
vn -0.9926317 -0.03224734 -0.1167999
vn -0.969959 -0.05618829 -0.2366906
vn -0.9998318 -0.009128828 0.01590255
vn -0.8882364 -0.4593822 0.002018871
vn -0.3918716 -0.9199231 -0.01334391
vn -0.06527229 -0.9940408 -0.08730793
vn -0.6244408 -0.7810557 -0.005054066
vn 0.7561894 0.4627888 0.4626058
vn 0.8381423 0.07287934 0.5405608
vn 0.7113888 0.4819284 0.5115378
vn 0.8133819 0.0779757 0.5764805
vn 0.8758199 0.08423129 0.4752311
vn 0.7576493 0.5394913 0.3673098
vn 0.5246485 0.7875172 0.3233584
vn 0.5113772 0.7774563 0.3661352
vn 0.5059219 0.82463 0.2530385
vn -0.7561894 -0.4627888 -0.4626058
vn -0.7113888 -0.4819284 -0.5115378
vn -0.8381423 -0.07287934 -0.5405608
vn -0.8133819 -0.0779757 -0.5764805
vn -0.8758199 -0.08423129 -0.4752311
vn -0.7576493 -0.5394913 -0.3673098
vn -0.5246485 -0.7875172 -0.3233584
vn -0.5113772 -0.7774563 -0.3661352
vn -0.5059219 -0.82463 -0.2530385
vn 0.8999305 0.4112236 0.1449831
vn 0.9799783 0.01680961 0.1983931
vn 0.8772372 0.4334773 0.206282
vn 0.9703138 0.02365928 0.2406891
vn 0.9920092 0.02542579 0.1235769
vn 0.8715097 0.4874395 0.05360413
vn 0.6544801 0.750662 0.09034626
vn 0.6570359 0.7416221 0.1352791
vn 0.6138749 0.7888098 0.03060606
vn -0.8999305 -0.4112236 -0.1449831
vn -0.8772372 -0.4334773 -0.206282
vn -0.9799783 -0.01680961 -0.1983931
vn -0.9703138 -0.02365928 -0.2406891
vn -0.9920092 -0.02542579 -0.1235769
vn -0.8715097 -0.4874395 -0.05360413
vn -0.6544801 -0.750662 -0.09034626
vn -0.6570359 -0.7416221 -0.1352791
vn -0.6138749 -0.7888098 -0.03060606
vn 0.7736656 0.4088284 0.4840464
vn 0.8469677 0.1182624 0.518324
vn 0.7851309 0.3709745 0.4959307
vn 0.8471738 0.1185466 0.5179222
vn 0.6629432 0.6100057 0.4340499
vn 0.6303614 0.6633016 0.4033304
vn -0.7736656 -0.4088284 -0.4840464
vn -0.7851309 -0.3709745 -0.4959307
vn -0.8469677 -0.1182624 -0.518324
vn -0.8471738 -0.1185466 -0.5179222
vn -0.6629432 -0.6100057 -0.4340499
vn -0.6303614 -0.6633016 -0.4033304
vn 0.8747389 0.4713944 0.112335
vn 0.9896979 0.06693572 0.1265598
vn 0.8839769 0.4528225 0.1163457
vn 0.9897095 0.0669965 0.1264382
vn 0.630659 0.7712889 0.08592197
vn 0.605343 0.7921989 0.07733431
vn -0.8747389 -0.4713944 -0.112335
vn -0.8839769 -0.4528225 -0.1163457
vn -0.9896979 -0.06693572 -0.1265598
vn -0.9897095 -0.0669965 -0.1264382
vn -0.630659 -0.7712889 -0.08592197
vn -0.605343 -0.7921989 -0.07733431
vn -0.7488863 0.6045999 -0.2713449
vn -0.9432168 0.1024008 -0.316
vn -0.5982476 0.6983928 -0.3928704
vn -0.8951744 0.1194475 -0.4294122
vn -0.9786403 0.08554424 -0.1869369
vn -0.8296396 0.5250497 -0.1897915
vn -0.3038086 0.9455802 -0.1165262
vn 0.03597273 0.991528 -0.1248129
vn -0.5440351 0.8252152 -0.151808
vn 0.7488863 -0.6045999 0.2713449
vn 0.5982476 -0.6983928 0.3928704
vn 0.9432168 -0.1024008 0.316
vn 0.8951744 -0.1194475 0.4294122
vn 0.9786403 -0.08554424 0.1869369
vn 0.8296396 -0.5250497 0.1897915
vn 0.3038086 -0.9455802 0.1165262
vn -0.03597273 -0.991528 0.1248129
vn 0.5440351 -0.8252152 0.151808
vn -0.7833449 0.5822468 -0.2176222
vn -0.9648243 0.0744703 -0.2521274
vn -0.6440489 0.6810715 -0.3483428
vn -0.9249721 0.09339876 -0.3683793
vn -0.9910564 0.05606347 -0.1210956
vn -0.8560348 0.4999538 -0.1313418
vn -0.3395521 0.936199 -0.09075056
vn -0.00263195 0.9926117 -0.1213061
vn -0.5778143 0.8086268 -0.1106946
vn 0.7833449 -0.5822468 0.2176222
vn 0.6440489 -0.6810715 0.3483428
vn 0.9648243 -0.0744703 0.2521274
vn 0.9249721 -0.09339876 0.3683793
vn 0.9910564 -0.05606347 0.1210956
vn 0.8560348 -0.4999538 0.1313418
vn 0.3395521 -0.936199 0.09075056
vn 0.00263195 -0.9926117 0.1213061
vn 0.5778143 -0.8086268 0.1106946
vn -0.8393179 0.4375844 -0.3225913
vn -0.9299163 0.06578396 -0.36184
vn -0.8459392 0.4203519 -0.3281631
vn -0.9299758 0.06590327 -0.3616652
vn -0.6439673 0.7238324 -0.2477352
vn -0.6249559 0.7445633 -0.2346391
vn 0.8393179 -0.4375844 0.3225913
vn 0.8459392 -0.4203519 0.3281631
vn 0.9299163 -0.06578396 0.36184
vn 0.9299758 -0.06590327 0.3616652
vn 0.6439673 -0.7238324 0.2477352
vn 0.6249559 -0.7445633 0.2346391
vn -0.2391836 0.404206 -0.8828412
vn -0.2954215 -0.006385168 -0.9553456
vn -0.2403758 0.3848154 -0.8911433
vn -0.2955334 -0.006314993 -0.9553116
vn -0.1454785 0.7199717 -0.6785845
vn -0.1415949 0.7430889 -0.654041
vn 0.2391836 -0.404206 0.8828412
vn 0.2403758 -0.3848154 0.8911433
vn 0.2954215 0.006385168 0.9553456
vn 0.2955334 0.006314993 0.9553116
vn 0.1454785 -0.7199717 0.6785845
vn 0.1415949 -0.7430889 0.654041

vt 0.729836 0.968822
vt 0.716889 0.4835
vt 0.540142 0.975514
vt 0.522791 0.482184
vt 0.918043 0.484863
vt 0.918043 0.962797
vt 0.730668 1
vt 0.541003 1
vt 0.918043 1
vt 0.729836 0.968822
vt 0.540142 0.975514
vt 0.716889 0.4835
vt 0.522791 0.482184
vt 0.918043 0.484863
vt 0.918043 0.962797
vt 0.730668 1
vt 0.541003 1
vt 0.918043 1
vt 0.269931 0.967478
vt 0.261395 0.480716
vt 0 0.96808
vt 0 0.479248
vt 0.522791 0.482184
vt 0.540178 0.976556
vt 0.270501 1
vt 0 1
vt 0.541003 1
vt 0.269931 0.967478
vt 0 0.96808
vt 0.261395 0.480716
vt 0 0.479248
vt 0.522791 0.482184
vt 0.540178 0.976556
vt 0.270501 1
vt 0 1
vt 0.541003 1
vt 0.269931 0.967478
vt 0.261395 0.480716
vt 0 0.96808
vt 0 0.479248
vt 0.522791 0.482184
vt 0.540178 0.976556
vt 0.270501 1
vt 0 1
vt 0.541003 1
vt 0.269931 0.967478
vt 0 0.96808
vt 0.261395 0.480716
vt 0 0.479248
vt 0.522791 0.482184
vt 0.540178 0.976556
vt 0.270501 1
vt 0 1
vt 0.541003 1
vt 0.212747 0.431268
vt 0.212747 0.031292
vt 0 0.425375
vt 0 0.031292
vt 0 0.465837
vt 0.212747 0.467241
vt 0.212747 0.431268
vt 0 0.425375
vt 0.212747 0.031292
vt 0 0.031292
vt 0 0.465837
vt 0.212747 0.467241
vt 0.992177 0.448377
vt 0.992177 0.047684
vt 0.818619 0.445216
vt 0.818619 0.047684
vt 0.818619 0.479883
vt 0.992177 0.481287
vt 0.992177 0.448377
vt 0.818619 0.445216
vt 0.992177 0.047684
vt 0.818619 0.047684
vt 0.818619 0.479883
vt 0.992177 0.481287
vt 0.729836 0.968822
vt 0.716889 0.4835
vt 0.540142 0.975514
vt 0.522791 0.482184
vt 0.918043 0.484863
vt 0.918043 0.962797
vt 0.730668 1
vt 0.541003 1
vt 0.918043 1
vt 0.729836 0.968822
vt 0.540142 0.975514
vt 0.716889 0.4835
vt 0.522791 0.482184
vt 0.918043 0.484863
vt 0.918043 0.962797
vt 0.730668 1
vt 0.541003 1
vt 0.918043 1
vt 0.729836 0.968822
vt 0.716889 0.4835
vt 0.540142 0.975514
vt 0.522791 0.482184
vt 0.918043 0.484863
vt 0.918043 0.962797
vt 0.730668 1
vt 0.541003 1
vt 0.918043 1
vt 0.729836 0.968822
vt 0.540142 0.975514
vt 0.716889 0.4835
vt 0.522791 0.482184
vt 0.918043 0.484863
vt 0.918043 0.962797
vt 0.730668 1
vt 0.541003 1
vt 0.918043 1
vt 0.764305 0.444435
vt 0.764305 0.015497
vt 0.538147 0.441285
vt 0.538147 0.015497
vt 0.538147 0.472519
vt 0.764305 0.473923
vt 0.764305 0.444435
vt 0.538147 0.441285
vt 0.764305 0.015497
vt 0.538147 0.015497
vt 0.538147 0.472519
vt 0.764305 0.473923
vt 0.992177 0.448377
vt 0.992177 0.047684
vt 0.818619 0.445216
vt 0.818619 0.047684
vt 0.818619 0.479883
vt 0.992177 0.481287
vt 0.992177 0.448377
vt 0.818619 0.445216
vt 0.992177 0.047684
vt 0.818619 0.047684
vt 0.818619 0.479883
vt 0.992177 0.481287




usemtl Iceicle_Dif
usemap Iceicle_Dif
f 6/6/6 9/9/9 7/7/7
f 6/6/6 7/7/7 1/1/1
f 1/1/1 7/7/7 3/3/3
f 1/1/1 3/3/3 2/2/2
f 2/2/2 3/3/3 4/4/4
f 7/7/7 8/8/8 3/3/3
f 12/12/12 13/13/13 11/11/11
f 12/12/12 11/11/11 10/10/10
f 10/10/10 11/11/11 16/16/16
f 10/10/10 16/16/16 15/15/15
f 15/15/15 16/16/16 18/18/18
f 11/11/11 17/17/17 16/16/16
f 24/24/24 27/27/27 25/25/25
f 24/24/24 25/25/25 19/19/19
f 19/19/19 25/25/25 21/21/21
f 19/19/19 21/21/21 20/20/20
f 20/20/20 21/21/21 22/22/22
f 21/21/21 25/25/25 26/26/26
f 30/30/30 31/31/31 29/29/29
f 30/30/30 29/29/29 28/28/28
f 28/28/28 29/29/29 34/34/34
f 28/28/28 34/34/34 33/33/33
f 33/33/33 34/34/34 36/36/36
f 35/35/35 34/34/34 29/29/29
f 42/42/42 45/45/45 43/43/43
f 42/42/42 43/43/43 37/37/37
f 37/37/37 43/43/43 39/39/39
f 37/37/37 39/39/39 38/38/38
f 38/38/38 39/39/39 40/40/40
f 39/39/39 43/43/43 44/44/44
f 48/48/48 49/49/49 47/47/47
f 48/48/48 47/47/47 46/46/46
f 46/46/46 47/47/47 52/52/52
f 46/46/46 52/52/52 51/51/51
f 51/51/51 52/52/52 54/54/54
f 53/53/53 52/52/52 47/47/47
f 60/60/60 59/59/59 55/55/55
f 55/55/55 59/59/59 57/57/57
f 55/55/55 57/57/57 56/56/56
f 56/56/56 57/57/57 58/58/58
f 65/65/65 66/66/66 61/61/61
f 65/65/65 61/61/61 62/62/62
f 62/62/62 61/61/61 63/63/63
f 62/62/62 63/63/63 64/64/64
f 72/72/72 71/71/71 67/67/67
f 67/67/67 71/71/71 69/69/69
f 67/67/67 69/69/69 68/68/68
f 68/68/68 69/69/69 70/70/70
f 77/77/77 78/78/78 73/73/73
f 77/77/77 73/73/73 74/74/74
f 74/74/74 73/73/73 75/75/75
f 74/74/74 75/75/75 76/76/76
f 84/84/84 87/87/87 85/85/85
f 84/84/84 85/85/85 79/79/79
f 79/79/79 85/85/85 81/81/81
f 79/79/79 81/81/81 80/80/80
f 80/80/80 81/81/81 82/82/82
f 81/81/81 85/85/85 86/86/86
f 90/90/90 91/91/91 89/89/89
f 90/90/90 89/89/89 88/88/88
f 88/88/88 89/89/89 94/94/94
f 88/88/88 94/94/94 93/93/93
f 93/93/93 94/94/94 96/96/96
f 94/94/94 89/89/89 95/95/95
f 102/102/102 105/105/105 103/103/103
f 102/102/102 103/103/103 97/97/97
f 97/97/97 103/103/103 99/99/99
f 97/97/97 99/99/99 98/98/98
f 98/98/98 99/99/99 100/100/100
f 99/99/99 103/103/103 104/104/104
f 108/108/108 109/109/109 107/107/107
f 108/108/108 107/107/107 106/106/106
f 106/106/106 107/107/107 112/112/112
f 106/106/106 112/112/112 111/111/111
f 111/111/111 112/112/112 114/114/114
f 112/112/112 107/107/107 113/113/113
f 118/118/118 116/116/116 117/117/117
f 117/117/117 116/116/116 115/115/115
f 117/117/117 115/115/115 119/119/119
f 119/119/119 115/115/115 120/120/120
f 123/123/123 124/124/124 122/122/122
f 123/123/123 122/122/122 121/121/121
f 121/121/121 122/122/122 125/125/125
f 121/121/121 125/125/125 126/126/126
f 132/132/132 131/131/131 127/127/127
f 127/127/127 131/131/131 129/129/129
f 127/127/127 129/129/129 128/128/128
f 128/128/128 129/129/129 130/130/130
f 137/137/137 138/138/138 133/133/133
f 137/137/137 133/133/133 134/134/134
f 134/134/134 133/133/133 135/135/135
f 134/134/134 135/135/135 136/136/136
f 1/1/1 2/2/2 5/5/5
f 1/1/1 5/5/5 6/6/6
f 14/14/14 12/12/12 10/10/10
f 14/14/14 10/10/10 15/15/15
f 19/19/19 20/20/20 23/23/23
f 19/19/19 23/23/23 24/24/24
f 32/32/32 30/30/30 28/28/28
f 32/32/32 28/28/28 33/33/33
f 37/37/37 38/38/38 41/41/41
f 37/37/37 41/41/41 42/42/42
f 50/50/50 48/48/48 46/46/46
f 50/50/50 46/46/46 51/51/51
f 83/83/83 84/84/84 79/79/79
f 83/83/83 79/79/79 80/80/80
f 88/88/88 93/93/93 92/92/92
f 88/88/88 92/92/92 90/90/90
f 101/101/101 102/102/102 97/97/97
f 101/101/101 97/97/97 98/98/98
f 106/106/106 111/111/111 110/110/110
f 106/106/106 110/110/110 108/108/108

