g NewMesh_tris_24
v 11.74734 -1.287334 -12.44837
v 10.9432 -13.65674 -13.22331
v 15.85174 -1.722841 -15.31462
v 14.92672 -13.82014 -16.24364
v 7.749631 -13.54052 -9.078349
v 8.627422 -1.40793 -8.648682
v 12.55566 -0.7797793 -11.56723
v 16.15391 -1.700642 -14.86362
v 9.015018 -0.9408519 -8.248177
v 11.74734 -1.287334 -12.44837
v 15.85174 -1.722841 -15.31462
v 10.9432 -13.65674 -13.22331
v 14.92672 -13.82014 -16.24364
v 7.749631 -13.54052 -9.078349
v 8.627422 -1.40793 -8.648682
v 12.55566 -0.7797793 -11.56723
v 16.15391 -1.700642 -14.86362
v 9.015018 -0.9408519 -8.248177
v -1.973944 0.209197 1.536529
v -3.250393 -6.444175 0.9613978
v 1.496508 -0.1884802 -1.816102
v 0.2224328 -6.820635 -2.391156
v 1.945729 0.05223441 -1.374665
v -1.527097 0.4286944 1.977889
v -1.973944 0.209197 1.536529
v 1.496508 -0.1884802 -1.816102
v -3.250393 -6.444175 0.9613978
v 0.2224328 -6.820635 -2.391156
v 1.945729 0.05223441 -1.374665
v -1.527097 0.4286944 1.977889

vn -0.5269088 0.6100387 -0.5917938
vn -0.6913083 0.110069 -0.7141272
vn -0.3351467 0.6987339 -0.6320186
vn -0.5963003 0.1238313 -0.793153
vn -0.7822569 0.09664825 -0.615413
vn -0.63792 0.5335977 -0.5552761
vn -0.1939284 0.9473835 -0.2546688
vn 0.1129828 0.9878172 -0.1070144
vn -0.3942087 0.8300328 -0.3945186
vn 0.5269088 -0.6100387 0.5917938
vn 0.3351467 -0.6987339 0.6320186
vn 0.6913083 -0.110069 0.7141272
vn 0.5963003 -0.1238313 0.793153
vn 0.7822569 -0.09664825 0.615413
vn 0.63792 -0.5335977 0.5552761
vn 0.1939284 -0.9473835 0.2546688
vn -0.1129828 -0.9878172 0.1070144
vn 0.3942087 -0.8300328 0.3945186
vn -0.5547742 0.5366689 -0.6357768
vn -0.6791442 0.1436363 -0.7198136
vn -0.5614513 0.5187382 -0.6447349
vn -0.6792223 0.1437059 -0.7197262
vn -0.349605 0.8154172 -0.4613796
vn -0.3330933 0.8345891 -0.4387594
vn 0.5547742 -0.5366689 0.6357768
vn 0.5614513 -0.5187382 0.6447349
vn 0.6791442 -0.1436363 0.7198136
vn 0.6792223 -0.1437059 0.7197262
vn 0.349605 -0.8154172 0.4613796
vn 0.3330933 -0.8345891 0.4387594

vt 0.729836 0.968822
vt 0.716889 0.4835
vt 0.540142 0.975514
vt 0.522791 0.482184
vt 0.918043 0.484863
vt 0.918043 0.962797
vt 0.730668 1
vt 0.541003 1
vt 0.918043 1
vt 0.729836 0.968822
vt 0.540142 0.975514
vt 0.716889 0.4835
vt 0.522791 0.482184
vt 0.918043 0.484863
vt 0.918043 0.962797
vt 0.730668 1
vt 0.541003 1
vt 0.918043 1
vt 0.992177 0.448377
vt 0.992177 0.047684
vt 0.818619 0.445216
vt 0.818619 0.047684
vt 0.818619 0.479883
vt 0.992177 0.481287
vt 0.992177 0.448377
vt 0.818619 0.445216
vt 0.992177 0.047684
vt 0.818619 0.047684
vt 0.818619 0.479883
vt 0.992177 0.481287




usemtl Iceicle_Dif
usemap Iceicle_Dif
f 6/6/6 9/9/9 7/7/7
f 6/6/6 7/7/7 1/1/1
f 1/1/1 7/7/7 3/3/3
f 1/1/1 3/3/3 2/2/2
f 2/2/2 3/3/3 4/4/4
f 8/8/8 3/3/3 7/7/7
f 12/12/12 13/13/13 11/11/11
f 12/12/12 11/11/11 10/10/10
f 10/10/10 11/11/11 16/16/16
f 10/10/10 16/16/16 15/15/15
f 15/15/15 16/16/16 18/18/18
f 17/17/17 16/16/16 11/11/11
f 24/24/24 23/23/23 19/19/19
f 19/19/19 23/23/23 21/21/21
f 19/19/19 21/21/21 20/20/20
f 20/20/20 21/21/21 22/22/22
f 29/29/29 30/30/30 25/25/25
f 29/29/29 25/25/25 26/26/26
f 26/26/26 25/25/25 27/27/27
f 26/26/26 27/27/27 28/28/28
f 1/1/1 2/2/2 5/5/5
f 1/1/1 5/5/5 6/6/6
f 14/14/14 12/12/12 10/10/10
f 14/14/14 10/10/10 15/15/15

