g NewMesh_tris_86
v -0.1301605 -10.15986 -0.3357159
v 0.7469261 -7.039794 -0.5785085
v -0.3607756 -1.149586 -0.07320168
v 0.3831424 1.224762 -0.6114454
v -0.4692937 0.5236372 0.6010202
v 0.5886865 -17.76987 -0.5531048
v 0.9813821 -7.0281 0.2559329
v 0.5886865 -17.76987 -0.5531048
v 0.9149646 0.8027177 0.2095945
v 0.1123125 0.983571 1.044446
v 0.3831424 1.224762 -0.6114454
v 0.3831424 1.224762 -0.6114454
v 0.1123125 0.983571 1.044446
v -0.4692937 0.5236372 0.6010202
v 0.1444781 -9.776655 0.422423
v 0.5886865 -17.76987 -0.5531048
v 0.9813821 -7.0281 0.2559329
v 0.2504013 -2.400937 0.5899068
v 0.1444781 -9.776655 0.422423
v -0.3607756 -1.149586 -0.07320168
v -0.4692937 0.5236372 0.6010202
v 0.1123125 0.983571 1.044446
v 0.1444781 -9.776655 0.422423
v -0.1301605 -10.15986 -0.3357159
v 0.5886865 -17.76987 -0.5531048
v 12.99701 8.216805 18.11045
v 14.74131 8.397465 17.14839
v 14.9107 7.833691 19.00402
v 14.08963 8.010578 16.29203
v 13.13717 7.651352 17.21668
v 15.39133 7.321531 17.82922
v 15.05831 3.958749 17.81997
v 14.74131 8.397465 17.14839
v 14.82567 3.830516 18.40754
v 14.96199 6.463377 17.44114
v 14.55606 4.42197 17.16146
v 13.96392 6.169329 17.73831
v 13.13717 7.651352 17.21668
v 14.08963 8.010578 16.29203
v 15.48779 0.6718698 17.8048
v 14.82567 3.830516 18.40754
v 14.05966 6.303951 18.55859
v 12.99701 8.216805 18.11045
v 13.82338 4.3417 18.05812
v 13.96392 6.169329 17.73831
v 13.13717 7.651352 17.21668
v 12.99701 8.216805 18.11045
v 14.55606 4.42197 17.16146
v 13.90439 3.71922 17.3267
v 14.25864 -2.454396 17.74714
v 14.37172 -0.9787386 17.38109
v 14.25864 -2.454396 17.74714
v 15.48779 0.6718698 17.8048
v 15.16377 -6.672606 17.92218
v 14.92259 -1.880639 17.04943
v 15.16377 -6.672606 17.92218
v 15.48779 0.6718698 17.8048
v 14.37172 -0.9787386 17.38109
v 14.25864 -2.454396 17.74714
v 14.92259 -1.880639 17.04943
v 15.16377 -6.672606 17.92218
v 14.82567 3.830516 18.40754
v 15.16377 -6.672606 17.92218
v 14.74131 8.397465 17.14839
v 7.130915 2.483672 5.249245
v 6.828645 2.814707 7.198567
v 5.231951 2.270284 6.226936
v 7.881889 2.371284 7.240835
v 7.718066 1.93146 5.948196
v 5.83455 1.800526 7.362573
v 5.861862 -1.578498 7.335546
v 6.828645 2.814707 7.198567
v 5.534658 -1.725793 6.799776
v 6.356644 0.9076589 7.322972
v 6.714147 -1.161757 7.315437
v 6.718719 0.5279669 6.376576
v 7.718066 1.93146 5.948196
v 7.881889 2.371284 7.240835
v 5.430213 -4.815335 7.905474
v 5.534658 -1.725793 6.799776
v 6.021133 0.6714989 5.937341
v 7.130915 2.483672 5.249245
v 6.452831 -1.304536 6.193565
v 6.718719 0.5279669 6.376576
v 7.718066 1.93146 5.948196
v 7.130915 2.483672 5.249245
v 6.714147 -1.161757 7.315437
v 6.945239 -1.918512 6.749963
v 6.058375 -8.037061 7.188831
v 6.358247 -6.557642 7.402702
v 6.058375 -8.037061 7.188831
v 5.430213 -4.815335 7.905474
v 5.134043 -12.15989 8.078254
v 6.232161 -7.408423 8.100665
v 5.134043 -12.15989 8.078254
v 5.430213 -4.815335 7.905474
v 6.358247 -6.557642 7.402702
v 6.058375 -8.037061 7.188831
v 6.232161 -7.408423 8.100665
v 5.134043 -12.15989 8.078254
v 5.534658 -1.725793 6.799776
v 5.134043 -12.15989 8.078254
v 6.828645 2.814707 7.198567

vn -0.9002668 -0.05377848 -0.4320042
vn 0.4655008 0.008658239 -0.8850051
vn -0.9500527 -0.09716212 -0.2965794
vn 0.03611217 0.7173016 -0.6958262
vn -0.9373303 0.2476283 0.2451373
vn 0.02668145 -0.9980947 -0.05563412
vn 0.874791 -0.02493319 0.4838585
vn 0.02668145 -0.9980947 -0.05563412
vn 0.9067361 0.4026178 0.1254137
vn -0.05840014 0.6043964 0.7945403
vn 0.03611217 0.7173016 -0.6958262
vn 0.03611217 0.7173016 -0.6958262
vn -0.05840014 0.6043964 0.7945403
vn -0.9373303 0.2476283 0.2451373
vn -0.3636119 -0.09662854 0.9265253
vn 0.02668145 -0.9980947 -0.05563412
vn 0.874791 -0.02493319 0.4838585
vn -0.6072628 -0.09175219 0.7891853
vn -0.3636119 -0.09662854 0.9265253
vn -0.9500527 -0.09716212 -0.2965794
vn -0.9373303 0.2476283 0.2451373
vn -0.05840014 0.6043964 0.7945403
vn -0.3636119 -0.09662854 0.9265253
vn -0.9002668 -0.05377848 -0.4320042
vn 0.02668145 -0.9980947 -0.05563412
vn -0.7610383 0.5582131 0.3304829
vn 0.5016845 0.8154662 -0.2886653
vn 0.3899627 0.4056497 0.8266665
vn -0.06230957 0.2546202 -0.9650317
vn -0.8732955 -0.1701326 -0.4565192
vn 0.9867347 0.0886636 -0.1359907
vn 0.9916586 0.04660926 -0.1201704
vn 0.5016845 0.8154662 -0.2886653
vn 0.3822652 -0.02430361 0.9237331
vn 0.3763933 -0.1165921 -0.9190942
vn 0.05722836 0.07997679 -0.9951526
vn -0.8317358 -0.1436321 -0.5362698
vn -0.8732955 -0.1701326 -0.4565192
vn -0.06230957 0.2546202 -0.9650317
vn 0.9925256 0.007617021 -0.121799
vn 0.3822652 -0.02430361 0.9237331
vn -0.6902062 -0.1470542 0.7085128
vn -0.7610383 0.5582131 0.3304829
vn -0.9554367 -0.004412164 0.2951631
vn -0.8317358 -0.1436321 -0.5362698
vn -0.8732955 -0.1701326 -0.4565192
vn -0.7610383 0.5582131 0.3304829
vn 0.05722836 0.07997679 -0.9951526
vn -0.7619496 0.03444794 -0.6467195
vn -0.9793527 -0.15267 0.1325147
vn -0.4849033 0.03094499 -0.8740202
vn -0.9793527 -0.15267 0.1325147
vn 0.9925256 0.007617021 -0.121799
vn 0.07032346 -0.9966497 0.04176149
vn 0.1585158 -0.0605297 -0.9854993
vn 0.07032346 -0.9966497 0.04176149
vn 0.9925256 0.007617021 -0.121799
vn -0.4849033 0.03094499 -0.8740202
vn -0.9793527 -0.15267 0.1325147
vn 0.1585158 -0.0605297 -0.9854993
vn 0.07032346 -0.9966497 0.04176149
vn 0.3822652 -0.02430361 0.9237331
vn 0.07032346 -0.9966497 0.04176149
vn 0.5016845 0.8154662 -0.2886653
vn 0.2371121 0.4900551 -0.838823
vn -0.03567206 0.8557835 0.516103
vn -0.868259 0.439223 -0.2306718
vn 0.8124389 0.2469555 0.5281629
vn 0.8860737 -0.2463304 -0.3926764
vn -0.493346 0.1743101 0.8521888
vn -0.5111346 0.1328669 0.849169
vn -0.03567206 0.8557835 0.516103
vn -0.9635679 0.01036603 -0.2672634
vn 0.4867725 -0.08447147 0.8694349
vn 0.7532643 0.08337837 0.6524117
vn 0.9248582 -0.2164055 -0.3127395
vn 0.8860737 -0.2463304 -0.3926764
vn 0.8124389 0.2469555 0.5281629
vn -0.5125203 0.0940972 0.8535039
vn -0.9635679 0.01036603 -0.2672634
vn -0.1428052 -0.2058426 -0.9681093
vn 0.2371121 0.4900551 -0.838823
vn 0.3533649 -0.08744125 -0.93139
vn 0.9248582 -0.2164055 -0.3127395
vn 0.8860737 -0.2463304 -0.3926764
vn 0.2371121 0.4900551 -0.838823
vn 0.7532643 0.08337837 0.6524117
vn 0.9788178 -0.03305534 -0.2020471
vn 0.4880483 -0.2374319 -0.8399018
vn 0.9877337 -0.01264793 0.1556351
vn 0.4880483 -0.2374319 -0.8399018
vn -0.5125203 0.0940972 0.8535039
vn -0.1306577 -0.9866472 0.09724133
vn 0.6758221 -0.04773439 0.7355175
vn -0.1306577 -0.9866472 0.09724133
vn -0.5125203 0.0940972 0.8535039
vn 0.9877337 -0.01264793 0.1556351
vn 0.4880483 -0.2374319 -0.8399018
vn 0.6758221 -0.04773439 0.7355175
vn -0.1306577 -0.9866472 0.09724133
vn -0.9635679 0.01036603 -0.2672634
vn -0.1306577 -0.9866472 0.09724133
vn -0.03567206 0.8557835 0.516103

vt 0.279216 0.383132
vt 0.222872 0.543265
vt 0.329572 0.83935
vt 0.263542 0.961102
vt 0.396095 0.922618
vt 0.170402 0.067691
vt 0.157696 0.545902
vt 0.170402 0.067691
vt 0.186564 0.941586
vt 0.097611 0.953434
vt 0.21446 0.993227
vt 0.263542 0.961102
vt 0.097611 0.953434
vt 0.07863 0.994977
vt 0.100342 0.405816
vt 0.170402 0.067691
vt 0.157696 0.545902
vt 0.096638 0.780218
vt 0.100342 0.405816
vt 0.017433 0.83816
vt 0.022925 0.928993
vt 0.097611 0.953434
vt 0.100342 0.405816
vt 0.043832 0.380974
vt 0.170402 0.067691
vt 0.453404 0.962502
vt 0.546022 0.964023
vt 0.506253 0.922391
vt 0.539998 0.995163
vt 0.470217 0.997849
vt 0.553403 0.90916
vt 0.539845 0.747485
vt 0.546022 0.964023
vt 0.494975 0.741689
vt 0.585881 0.875919
vt 0.596774 0.774766
vt 0.639776 0.862839
vt 0.673396 0.94036
vt 0.610759 0.964513
vt 0.527229 0.514808
vt 0.494975 0.741689
vt 0.452866 0.870579
vt 0.453404 0.962502
vt 0.427591 0.773281
vt 0.410707 0.868711
vt 0.405161 0.942829
vt 0.453404 0.962502
vt 0.350793 0.77657
vt 0.386576 0.730678
vt 0.397678 0.305901
vt 0.369134 0.407805
vt 0.397678 0.305901
vt 0.527229 0.514808
vt 0.44853 0.05803
vt 0.562992 0.334657
vt 0.44853 0.05803
vt 0.527229 0.514808
vt 0.614268 0.400257
vt 0.621087 0.286141
vt 0.562992 0.334657
vt 0.44853 0.05803
vt 0.494975 0.741689
vt 0.44853 0.05803
vt 0.546022 0.964023
vt 0.453404 0.962502
vt 0.546022 0.964023
vt 0.506253 0.922391
vt 0.539998 0.995163
vt 0.470217 0.997849
vt 0.553403 0.90916
vt 0.539845 0.747485
vt 0.546022 0.964023
vt 0.494975 0.741689
vt 0.585881 0.875919
vt 0.596774 0.774766
vt 0.639776 0.862839
vt 0.673396 0.94036
vt 0.610759 0.964513
vt 0.527229 0.514808
vt 0.494975 0.741689
vt 0.452866 0.870579
vt 0.453404 0.962502
vt 0.427591 0.773281
vt 0.410707 0.868711
vt 0.405161 0.942829
vt 0.453404 0.962502
vt 0.350793 0.77657
vt 0.386576 0.730678
vt 0.397678 0.305901
vt 0.369134 0.407805
vt 0.397678 0.305901
vt 0.527229 0.514808
vt 0.44853 0.05803
vt 0.562992 0.334657
vt 0.44853 0.05803
vt 0.527229 0.514808
vt 0.614268 0.400257
vt 0.621087 0.286141
vt 0.562992 0.334657
vt 0.44853 0.05803
vt 0.494975 0.741689
vt 0.44853 0.05803
vt 0.546022 0.964023




usemtl Icicle_normals
usemap Icicle_normals
f 11/11/11 14/14/14 13/13/13
f 15/15/15 16/16/16 7/7/7
f 20/20/20 24/24/24 23/23/23
f 24/24/24 25/25/25 19/19/19
f 41/41/41 54/54/54 53/53/53
f 40/40/40 56/56/56 55/55/55
f 59/59/59 58/58/58 60/60/60
f 61/61/61 59/59/59 55/55/55
f 50/50/50 63/63/63 62/62/62
f 80/80/80 93/93/93 92/92/92
f 79/79/79 95/95/95 94/94/94
f 98/98/98 97/97/97 99/99/99
f 100/100/100 98/98/98 94/94/94
f 89/89/89 102/102/102 101/101/101
f 6/6/6 1/1/1 2/2/2
f 2/2/2 1/1/1 3/3/3
f 2/2/2 3/3/3 4/4/4
f 4/4/4 3/3/3 5/5/5
f 11/11/11 10/10/10 9/9/9
f 9/9/9 10/10/10 7/7/7
f 9/9/9 7/7/7 2/2/2
f 2/2/2 7/7/7 8/8/8
f 9/9/9 2/2/2 12/12/12
f 17/17/17 10/10/10 18/18/18
f 17/17/17 18/18/18 19/19/19
f 19/19/19 18/18/18 20/20/20
f 18/18/18 22/22/22 21/21/21
f 18/18/18 21/21/21 20/20/20
f 29/29/29 30/30/30 26/26/26
f 29/29/29 26/26/26 27/27/27
f 27/27/27 26/26/26 28/28/28
f 36/36/36 37/37/37 35/35/35
f 36/36/36 35/35/35 32/32/32
f 32/32/32 35/35/35 31/31/31
f 32/32/32 31/31/31 28/28/28
f 28/28/28 31/31/31 33/33/33
f 34/34/34 32/32/32 28/28/28
f 40/40/40 36/36/36 32/32/32
f 40/40/40 32/32/32 41/41/41
f 28/28/28 43/43/43 42/42/42
f 28/28/28 42/42/42 41/41/41
f 41/41/41 42/42/42 44/44/44
f 41/41/41 44/44/44 50/50/50
f 50/50/50 44/44/44 49/49/49
f 51/51/51 52/52/52 49/49/49
f 51/51/51 49/49/49 48/48/48
f 48/48/48 49/49/49 44/44/44
f 48/48/48 44/44/44 45/45/45
f 45/45/45 44/44/44 42/42/42
f 45/45/45 42/42/42 46/46/46
f 46/46/46 42/42/42 47/47/47
f 58/58/58 36/36/36 57/57/57
f 58/58/58 57/57/57 55/55/55
f 37/37/37 38/38/38 35/35/35
f 35/35/35 38/38/38 39/39/39
f 35/35/35 39/39/39 31/31/31
f 31/31/31 39/39/39 64/64/64
f 68/68/68 69/69/69 65/65/65
f 68/68/68 65/65/65 66/66/66
f 66/66/66 65/65/65 67/67/67
f 75/75/75 76/76/76 74/74/74
f 75/75/75 74/74/74 71/71/71
f 71/71/71 74/74/74 70/70/70
f 71/71/71 70/70/70 67/67/67
f 67/67/67 70/70/70 72/72/72
f 73/73/73 71/71/71 67/67/67
f 79/79/79 75/75/75 71/71/71
f 79/79/79 71/71/71 80/80/80
f 67/67/67 82/82/82 81/81/81
f 67/67/67 81/81/81 80/80/80
f 80/80/80 81/81/81 83/83/83
f 80/80/80 83/83/83 89/89/89
f 89/89/89 83/83/83 88/88/88
f 90/90/90 91/91/91 88/88/88
f 90/90/90 88/88/88 87/87/87
f 87/87/87 88/88/88 83/83/83
f 87/87/87 83/83/83 84/84/84
f 84/84/84 83/83/83 81/81/81
f 84/84/84 81/81/81 85/85/85
f 85/85/85 81/81/81 86/86/86
f 97/97/97 75/75/75 96/96/96
f 97/97/97 96/96/96 94/94/94
f 76/76/76 77/77/77 74/74/74
f 74/74/74 77/77/77 78/78/78
f 74/74/74 78/78/78 70/70/70
f 70/70/70 78/78/78 103/103/103

