g NewMesh_tris_200
v -9.339569 4.886828 44.01453
v -8.836528 8.768275 44.33498
v -5.983915 2.910123 35.36722
v -11.87573 -1.553777 41.01791
v -10.99139 0.6750926 32.17299
v -4.254683 7.038784 32.62046
v -15.21397 0.09096614 31.41055
v -12.72944 4.155276 28.8001
v -16.63456 2.915978 29.24512
v -19.0757 0.1054281 39.94999
v -21.56377 4.647572 42.97403
v -17.99357 1.184458 42.7249
v -11.87573 -1.553777 41.01791
v -10.90721 4.045503 45.35174
v -11.25997 8.370432 46.57563
v -9.339569 4.886828 44.01453
v -15.21397 0.09096614 31.41055
v -16.63456 2.915978 29.24512
v -22.77165 4.31097 39.50954
v -8.836528 8.768275 44.33498
v -16.63456 2.915978 29.24512
v -16.39192 4.967948 29.26662
v -22.77165 4.31097 39.50954
v -13.51253 5.075482 28.16055
v -9.502051 10.01003 44.77313
v -22.38234 5.710335 39.87374
v -21.56377 4.647572 42.97403
v -12.05054 9.531392 45.7125
v -11.25997 8.370432 46.57563
v -5.254252 8.28816 32.45763
v -4.254683 7.038784 32.62046
v -12.72944 4.155276 28.8001
v -20.56952 5.926706 42.61235
v -11.25997 8.370432 46.57563
v -8.836528 8.768275 44.33498
v -11.25997 8.370432 46.57563
v -7.439829 2.671895 -0.549854
v -6.043592 5.332075 -1.812323
v -10.52705 -1.064601 -6.806092
v -12.00053 -1.353158 0.6305585
v -15.56202 -1.083728 -6.149512
v -9.974581 0.9454982 -10.61211
v -18.48588 0.06460162 -4.776682
v -17.45157 1.746562 -8.773075
v -19.72723 2.430835 -6.533505
v -16.21853 2.561343 2.252441
v -14.94341 7.183936 3.701516
v -13.90024 3.235201 3.259131
v -12.00053 -1.353158 0.6305585
v -7.834058 2.828057 1.20835
v -6.34289 6.24941 0.722182
v -7.439829 2.671895 -0.549854
v -18.48588 0.06460162 -4.776682
v -19.72723 2.430835 -6.533505
v -17.51083 7.02097 2.057365
v -6.043592 5.332075 -1.812323
v -19.72723 2.430835 -6.533505
v -19.07924 3.829545 -7.287024
v -17.51083 7.02097 2.057365
v -18.0026 2.650685 -9.175993
v -5.888954 6.545985 -1.672418
v -16.76057 7.926519 1.680083
v -14.94341 7.183936 3.701516
v -6.955877 7.306128 0.09938566
v -6.34289 6.24941 0.722182
v -10.31956 2.228053 -10.72968
v -9.974581 0.9454982 -10.61211
v -17.45157 1.746562 -8.773075
v -14.25862 7.682019 2.65603
v -6.34289 6.24941 0.722182
v -6.043592 5.332075 -1.812323
v -6.34289 6.24941 0.722182
v -5.132807 0.7946764 4.263591
v -5.801417 4.27361 5.229391
v 3.62249 -0.2171239 5.619521
v -2.049007 -4.427631 0.8049019
v 5.966756 -1.23195 0.5002045
v 5.953115 3.774359 7.214645
v 6.014643 -1.158193 -3.361495
v 8.356774 2.664199 -1.096488
v 7.426918 1.925163 -4.578749
v -2.495447 -1.88259 -5.41644
v -6.238553 2.184791 -6.558634
v -4.988552 -1.405947 -3.918537
v -2.049007 -4.427631 0.8049019
v -6.53008 0.01762462 2.999974
v -8.227895 3.881626 3.413883
v -5.132807 0.7946764 4.263591
v 6.014643 -1.158193 -3.361495
v 7.426918 1.925163 -4.578749
v -3.221226 2.505741 -8.179437
v -5.801417 4.27361 5.229391
v 7.426918 1.925163 -4.578749
v 7.205403 3.787924 -4.110994
v -3.221226 2.505741 -8.179437
v 8.701553 3.697693 -1.76163
v -6.46511 5.438444 4.870626
v -3.655257 3.700113 -7.612407
v -6.238553 2.184791 -6.558634
v -7.707469 5.169767 2.737853
v -8.227895 3.881626 3.413883
v 5.783724 5.070742 6.474555
v 5.953115 3.774359 7.214645
v 8.356774 2.664199 -1.096488
v -5.887774 3.297697 -5.590943
v -8.227895 3.881626 3.413883
v -5.801417 4.27361 5.229391
v -8.227895 3.881626 3.413883
v 10.36711 -0.4822428 -1.462132
v 8.917871 2.638775 -1.366339
v 16.3721 -0.1430559 4.344256
v 15.20228 -4.85728 -2.030234
v 21.03826 -0.7251258 1.764034
v 16.78672 3.889275 6.484732
v 23.15632 -0.6385553 -1.171969
v 23.23741 3.236919 1.501244
v 24.5095 2.426758 -1.600894
v 17.92523 -2.547619 -7.239609
v 15.22259 0.6749505 -10.45086
v 15.17243 -2.475118 -7.466537
v 15.20228 -4.85728 -2.030234
v 10.08934 -1.402421 -3.113242
v 8.114496 1.926311 -4.02225
v 10.36711 -0.4822428 -1.462132
v 23.15632 -0.6385553 -1.171969
v 24.5095 2.426758 -1.600894
v 18.34157 1.418047 -10.10292
v 8.917871 2.638775 -1.366339
v 24.5095 2.426758 -1.600894
v 23.8634 4.117977 -1.514347
v 18.34157 1.418047 -10.10292
v 23.73302 4.246315 1.091854
v 8.469563 3.621453 -2.091725
v 17.56201 2.458956 -9.999258
v 15.22259 0.6749505 -10.45086
v 8.717916 3.197231 -4.366875
v 8.114496 1.926311 -4.02225
v 16.90251 5.067155 5.721232
v 16.78672 3.889275 6.484732
v 23.23741 3.236919 1.501244
v 14.82906 1.753996 -9.613859
v 8.114496 1.926311 -4.02225
v 8.917871 2.638775 -1.366339
v 8.114496 1.926311 -4.02225
v -27.33099 -0.2395327 8.220208
v -27.8006 3.381712 9.578176
v -18.14573 -0.7242371 6.004004
v -25.39535 -5.499463 3.376643
v -17.84805 -1.555263 -0.001763874
v -15.4526 3.637886 6.799696
v -19.35863 -1.413089 -3.808914
v -16.37493 2.760288 -2.367121
v -18.64379 1.968186 -5.443454
v -28.48353 -2.738329 -2.448039
v -32.84855 1.325614 -1.904276
v -30.35229 -2.430376 0.04024458
v -25.39535 -5.499463 3.376643
v -29.16339 -1.139237 7.507512
v -30.88612 2.826889 8.751558
v -27.33099 -0.2395327 8.220208
v -19.35863 -1.413089 -3.808914
v -18.64379 1.968186 -5.443454
v -30.56193 1.900327 -4.690547
v -27.8006 3.381712 9.578176
v -18.64379 1.968186 -5.443454
v -18.78133 3.917397 -4.819467
v -30.56193 1.900327 -4.690547
v -16.36478 3.88876 -3.115927
v -28.66327 4.574399 9.539333
v -30.82887 3.125656 -3.911307
v -32.84855 1.325614 -1.904276
v -30.72305 4.237299 7.932129
v -30.88612 2.826889 8.751558
v -15.99185 5.010145 6.193946
v -15.4526 3.637886 6.799696
v -16.37493 2.760288 -2.367121
v -32.18041 2.512874 -1.049309
v -30.88612 2.826889 8.751558
v -27.8006 3.381712 9.578176
v -30.88612 2.826889 8.751558

vn 0.8071505 -0.2746055 0.5225896
vn 0.8575913 0.09225427 0.5059907
vn 0.8389012 -0.5440758 -0.0150429
vn 0.2638208 -0.9018935 0.3420334
vn 0.3941131 -0.7731505 -0.4969037
vn 0.9308086 0.05359441 -0.3615565
vn -0.2254344 -0.8375317 -0.4977148
vn 0.320996 -0.4400002 -0.8386664
vn -0.5292344 -0.3703598 -0.7633771
vn -0.5576891 -0.8252797 0.0888614
vn -0.7337319 -0.03088407 0.6787368
vn -0.3422502 -0.6196036 0.7063683
vn 0.2638208 -0.9018935 0.3420334
vn 0.3193983 -0.4115131 0.8536053
vn 0.1580707 0.1421644 0.9771402
vn 0.8071505 -0.2746055 0.5225896
vn -0.2254344 -0.8375317 -0.4977148
vn -0.5292344 -0.3703598 -0.7633771
vn -0.9770132 -0.1854117 -0.1052027
vn 0.8575913 0.09225427 0.5059907
vn -0.5292344 -0.3703598 -0.7633771
vn -0.5259076 0.5640559 -0.6366022
vn -0.9770132 -0.1854117 -0.1052027
vn 0.003518325 0.3432806 -0.9392264
vn 0.4132852 0.8319439 0.3702224
vn -0.7644317 0.6429812 -0.04711191
vn -0.7337319 -0.03088407 0.6787368
vn -0.259149 0.8357118 0.4841773
vn 0.1580707 0.1421644 0.9771402
vn 0.4226972 0.7917618 -0.440954
vn 0.9308086 0.05359441 -0.3615565
vn 0.320996 -0.4400002 -0.8386664
vn -0.5419583 0.7127265 0.4453113
vn 0.1580707 0.1421644 0.9771402
vn 0.8575913 0.09225427 0.5059907
vn 0.1580707 0.1421644 0.9771402
vn 0.8240469 -0.556473 0.1062285
vn 0.9609815 -0.2653965 -0.07797074
vn 0.4287073 -0.8774174 -0.215287
vn 0.1306332 -0.8619841 0.4898146
vn -0.2619423 -0.9261978 -0.2711896
vn 0.4587937 -0.4508851 -0.7656443
vn -0.7271685 -0.6834323 0.06439073
vn -0.4275644 -0.6485035 -0.629787
vn -0.9703472 -0.1682784 -0.1735189
vn -0.5950208 -0.4337585 0.6766121
vn -0.1117323 0.4182348 0.9014408
vn 0.008643783 -0.2764416 0.9609919
vn 0.1306332 -0.8619841 0.4898146
vn 0.6393021 -0.3953766 0.6595228
vn 0.7683443 0.1783685 0.6146802
vn 0.8240469 -0.556473 0.1062285
vn -0.7271685 -0.6834323 0.06439073
vn -0.9703472 -0.1682784 -0.1735189
vn -0.8241081 0.2962279 0.4827991
vn 0.9609815 -0.2653965 -0.07797074
vn -0.9703472 -0.1682784 -0.1735189
vn -0.6056716 0.6561785 -0.450102
vn -0.8241081 0.2962279 0.4827991
vn -0.4815043 0.1691395 -0.8599684
vn 0.7806596 0.5708985 -0.2542547
vn -0.3841547 0.9187919 0.0908103
vn -0.1117323 0.4182348 0.9014408
vn 0.3699068 0.9135989 0.1688366
vn 0.7683443 0.1783685 0.6146802
vn 0.2674474 0.4224301 -0.8660397
vn 0.4587937 -0.4508851 -0.7656443
vn -0.4275644 -0.6485035 -0.629787
vn 0.1051036 0.9382017 0.3297434
vn 0.7683443 0.1783685 0.6146802
vn 0.9609815 -0.2653965 -0.07797074
vn 0.7683443 0.1783685 0.6146802
vn -0.3259293 -0.4445097 0.8343747
vn -0.3462322 -0.08804528 0.9340082
vn 0.2376723 -0.6329414 0.7368155
vn -0.1720326 -0.9678609 0.1834392
vn 0.6537742 -0.7325497 0.1896054
vn 0.5178159 -0.005909946 0.8554717
vn 0.548079 -0.720915 -0.4241355
vn 0.9318106 -0.3459569 0.1097389
vn 0.6925558 -0.1862692 -0.6969004
vn -0.08666439 -0.7559855 -0.648826
vn -0.7934095 -0.04269314 -0.607189
vn -0.6744685 -0.6718439 -0.3061338
vn -0.1720326 -0.9678609 0.1834392
vn -0.7216711 -0.5692593 0.3938715
vn -0.9410495 -0.02471704 0.3373646
vn -0.3259293 -0.4445097 0.8343747
vn 0.548079 -0.720915 -0.4241355
vn 0.6925558 -0.1862692 -0.6969004
vn -0.05489999 -0.04854385 -0.9973111
vn -0.3462322 -0.08804528 0.9340082
vn 0.6925558 -0.1862692 -0.6969004
vn 0.4529153 0.7116395 -0.5370633
vn -0.05489999 -0.04854385 -0.9973111
vn 0.8733464 0.4760726 -0.1030577
vn -0.3883768 0.7117234 0.5853317
vn -0.1756675 0.730275 -0.6601813
vn -0.7934095 -0.04269314 -0.607189
vn -0.6242316 0.7795718 -0.05101472
vn -0.9410495 -0.02471704 0.3373646
vn 0.4091166 0.7916821 0.4537213
vn 0.5178159 -0.005909946 0.8554717
vn 0.9318106 -0.3459569 0.1097389
vn -0.6232665 0.6987359 -0.3511508
vn -0.9410495 -0.02471704 0.3373646
vn -0.3462322 -0.08804528 0.9340082
vn -0.9410495 -0.02471704 0.3373646
vn -0.6872125 -0.4924956 0.5340289
vn -0.8071361 -0.1438711 0.5725666
vn -0.1522201 -0.5904207 0.7926111
vn -0.11967 -0.9834139 0.1362946
vn 0.5120834 -0.6222135 0.5921326
vn -0.07586495 0.07225595 0.9944967
vn 0.7798219 -0.6252947 0.02973481
vn 0.7324283 -0.1967431 0.6517981
vn 0.9847913 -0.07381261 -0.1572822
vn 0.4024372 -0.7582281 -0.5129663
vn -0.2834058 -0.164017 -0.9448701
vn -0.2801691 -0.7678541 -0.5761123
vn -0.11967 -0.9834139 0.1362946
vn -0.735724 -0.6760652 -0.04057188
vn -0.9502314 -0.1722258 -0.2596122
vn -0.6872125 -0.4924956 0.5340289
vn 0.7798219 -0.6252947 0.02973481
vn 0.9847913 -0.07381261 -0.1572822
vn 0.5379701 -0.05340769 -0.8412703
vn -0.8071361 -0.1438711 0.5725666
vn 0.9847913 -0.07381261 -0.1572822
vn 0.5833914 0.7752344 -0.2422107
vn 0.5379701 -0.05340769 -0.8412703
vn 0.7020727 0.6067686 0.3727275
vn -0.7429904 0.6406204 0.1938318
vn 0.1453804 0.6959943 -0.703176
vn -0.2834058 -0.164017 -0.9448701
vn -0.5743769 0.6728359 -0.4662434
vn -0.9502314 -0.1722258 -0.2596122
vn -0.03443799 0.844383 0.534632
vn -0.07586495 0.07225595 0.9944967
vn 0.7324283 -0.1967431 0.6517981
vn -0.3898313 0.5940742 -0.7036387
vn -0.9502314 -0.1722258 -0.2596122
vn -0.8071361 -0.1438711 0.5725666
vn -0.9502314 -0.1722258 -0.2596122
vn 0.0396465 -0.4772068 0.8778962
vn 0.03907942 -0.1243514 0.9914684
vn 0.5336304 -0.6268946 0.5676634
vn -0.03620395 -0.9796563 0.1973898
vn 0.7160295 -0.69094 -0.09951752
vn 0.8029426 0.0152923 0.5958601
vn 0.3850971 -0.6771435 -0.6270382
vn 0.9213467 -0.2858435 -0.2634644
vn 0.3857833 -0.1302044 -0.9133554
vn -0.2844846 -0.7503293 -0.5967198
vn -0.9607267 -0.08549848 -0.2639962
vn -0.70217 -0.7099158 -0.05456018
vn -0.03620395 -0.9796563 0.1973898
vn -0.486047 -0.6210326 0.6148797
vn -0.7400284 -0.0912312 0.6663594
vn 0.0396465 -0.4772068 0.8778962
vn 0.3850971 -0.6771435 -0.6270382
vn 0.3857833 -0.1302044 -0.9133554
vn -0.426111 -0.03723443 -0.9039043
vn 0.03907942 -0.1243514 0.9914684
vn 0.3857833 -0.1302044 -0.9133554
vn 0.1756858 0.747633 -0.6404524
vn -0.426111 -0.03723443 -0.9039043
vn 0.7415161 0.5336655 -0.4066386
vn -0.1759635 0.67603 0.7155559
vn -0.4526509 0.7269289 -0.5164121
vn -0.9607267 -0.08549848 -0.2639962
vn -0.6387857 0.7377333 0.2184082
vn -0.7400284 -0.0912312 0.6663594
vn 0.5064213 0.8099349 0.2958764
vn 0.8029426 0.0152923 0.5958601
vn 0.9213467 -0.2858435 -0.2634644
vn -0.7472304 0.6615942 -0.06276724
vn -0.7400284 -0.0912312 0.6663594
vn 0.03907942 -0.1243514 0.9914684
vn -0.7400284 -0.0912312 0.6663594

vt 0.105564 0.006299
vt 0.006812 0.006898
vt 0.115004 0.228681
vt 0.285904 0.075228
vt 0.229389 0.312587
vt 0.003993 0.304615
vt 0.324684 0.354119
vt 0.211654 0.447158
vt 0.310041 0.461608
vt 0.16035 0.745655
vt 0.288167 0.656228
vt 0.164196 0.667298
vt 0.003246 0.683027
vt 0.067431 0.51652
vt 0.131236 0.413714
vt 0.01575 0.482876
vt 0.045109 0.963272
vt 0.136155 0.998269
vt 0.28601 0.764813
vt 0.04678 0.376307
vt 0.97866 0.129421
vt 0.89064 0.202527
vt 0.991554 0.801269
vt 0.822159 0.092702
vt 0.365779 0.784853
vt 0.948556 0.802379
vt 0.919272 0.984635
vt 0.444918 0.895818
vt 0.372689 0.987781
vt 0.418667 0.143893
vt 0.356494 0.038484
vt 0.821652 0.003784
vt 0.845707 0.911495
vt 0.372689 0.987781
vt 0.295914 0.776598
vt 0.372689 0.987781
vt 0.105564 0.006299
vt 0.006812 0.006898
vt 0.115004 0.228681
vt 0.285904 0.075228
vt 0.229389 0.312587
vt 0.003993 0.304615
vt 0.324684 0.354119
vt 0.211654 0.447158
vt 0.310041 0.461608
vt 0.16035 0.745655
vt 0.288167 0.656228
vt 0.164196 0.667298
vt 0.003246 0.683027
vt 0.067431 0.51652
vt 0.131236 0.413714
vt 0.01575 0.482876
vt 0.045109 0.963272
vt 0.136155 0.998269
vt 0.28601 0.764813
vt 0.04678 0.376307
vt 0.97866 0.129421
vt 0.89064 0.202527
vt 0.991554 0.801269
vt 0.822159 0.092702
vt 0.365779 0.784853
vt 0.948556 0.802379
vt 0.919272 0.984635
vt 0.444918 0.895818
vt 0.372689 0.987781
vt 0.418667 0.143893
vt 0.356494 0.038484
vt 0.821652 0.003784
vt 0.845707 0.911495
vt 0.372689 0.987781
vt 0.295914 0.776598
vt 0.372689 0.987781
vt 0.105564 0.006299
vt 0.006812 0.006898
vt 0.115004 0.228681
vt 0.285904 0.075228
vt 0.229389 0.312587
vt 0.003993 0.304615
vt 0.324684 0.354119
vt 0.211654 0.447158
vt 0.310041 0.461608
vt 0.16035 0.745655
vt 0.288167 0.656228
vt 0.164196 0.667298
vt 0.003246 0.683027
vt 0.067431 0.51652
vt 0.131236 0.413714
vt 0.01575 0.482876
vt 0.045109 0.963272
vt 0.136155 0.998269
vt 0.28601 0.764813
vt 0.04678 0.376307
vt 0.97866 0.129421
vt 0.89064 0.202527
vt 0.991554 0.801269
vt 0.822159 0.092702
vt 0.365779 0.784853
vt 0.948556 0.802379
vt 0.919272 0.984635
vt 0.444918 0.895818
vt 0.372689 0.987781
vt 0.418667 0.143893
vt 0.356494 0.038484
vt 0.821652 0.003784
vt 0.845707 0.911495
vt 0.372689 0.987781
vt 0.295914 0.776598
vt 0.372689 0.987781
vt 0.105564 0.006299
vt 0.006812 0.006898
vt 0.115004 0.228681
vt 0.285904 0.075228
vt 0.229389 0.312587
vt 0.003993 0.304615
vt 0.324684 0.354119
vt 0.211654 0.447158
vt 0.310041 0.461608
vt 0.16035 0.745655
vt 0.288167 0.656228
vt 0.164196 0.667298
vt 0.003246 0.683027
vt 0.067431 0.51652
vt 0.131236 0.413714
vt 0.01575 0.482876
vt 0.045109 0.963272
vt 0.136155 0.998269
vt 0.28601 0.764813
vt 0.04678 0.376307
vt 0.97866 0.129421
vt 0.89064 0.202527
vt 0.991554 0.801269
vt 0.822159 0.092702
vt 0.365779 0.784853
vt 0.948556 0.802379
vt 0.919272 0.984635
vt 0.444918 0.895818
vt 0.372689 0.987781
vt 0.418667 0.143893
vt 0.356494 0.038484
vt 0.821652 0.003784
vt 0.845707 0.911495
vt 0.372689 0.987781
vt 0.295914 0.776598
vt 0.372689 0.987781
vt 0.105564 0.006299
vt 0.006812 0.006898
vt 0.115004 0.228681
vt 0.285904 0.075228
vt 0.229389 0.312587
vt 0.003993 0.304615
vt 0.324684 0.354119
vt 0.211654 0.447158
vt 0.310041 0.461608
vt 0.16035 0.745655
vt 0.288167 0.656228
vt 0.164196 0.667298
vt 0.003246 0.683027
vt 0.067431 0.51652
vt 0.131236 0.413714
vt 0.01575 0.482876
vt 0.045109 0.963272
vt 0.136155 0.998269
vt 0.28601 0.764813
vt 0.04678 0.376307
vt 0.97866 0.129421
vt 0.89064 0.202527
vt 0.991554 0.801269
vt 0.822159 0.092702
vt 0.365779 0.784853
vt 0.948556 0.802379
vt 0.919272 0.984635
vt 0.444918 0.895818
vt 0.372689 0.987781
vt 0.418667 0.143893
vt 0.356494 0.038484
vt 0.821652 0.003784
vt 0.845707 0.911495
vt 0.372689 0.987781
vt 0.295914 0.776598
vt 0.372689 0.987781




usemtl G_Edge_Dif
usemap G_Edge_Dif
f 2/2/2 1/1/1 3/3/3
f 2/2/2 3/3/3 6/6/6
f 6/6/6 3/3/3 5/5/5
f 6/6/6 5/5/5 8/8/8
f 8/8/8 5/5/5 7/7/7
f 8/8/8 7/7/7 9/9/9
f 11/11/11 19/19/19 10/10/10
f 11/11/11 10/10/10 12/12/12
f 12/12/12 10/10/10 13/13/13
f 12/12/12 13/13/13 14/14/14
f 14/14/14 13/13/13 16/16/16
f 14/14/14 16/16/16 15/15/15
f 15/15/15 16/16/16 20/20/20
f 34/34/34 25/25/25 28/28/28
f 28/28/28 25/25/25 26/26/26
f 28/28/28 26/26/26 33/33/33
f 33/33/33 26/26/26 27/27/27
f 33/33/33 27/27/27 28/28/28
f 28/28/28 27/27/27 29/29/29
f 23/23/23 27/27/27 26/26/26
f 23/23/23 26/26/26 22/22/22
f 22/22/22 26/26/26 25/25/25
f 22/22/22 25/25/25 24/24/24
f 24/24/24 25/25/25 30/30/30
f 24/24/24 30/30/30 31/31/31
f 31/31/31 30/30/30 25/25/25
f 31/31/31 25/25/25 35/35/35
f 35/35/35 25/25/25 36/36/36
f 38/38/38 37/37/37 39/39/39
f 38/38/38 39/39/39 42/42/42
f 42/42/42 39/39/39 41/41/41
f 42/42/42 41/41/41 44/44/44
f 44/44/44 41/41/41 43/43/43
f 44/44/44 43/43/43 45/45/45
f 47/47/47 55/55/55 46/46/46
f 47/47/47 46/46/46 48/48/48
f 48/48/48 46/46/46 49/49/49
f 48/48/48 49/49/49 50/50/50
f 50/50/50 49/49/49 52/52/52
f 50/50/50 52/52/52 51/51/51
f 51/51/51 52/52/52 56/56/56
f 70/70/70 61/61/61 64/64/64
f 64/64/64 61/61/61 62/62/62
f 64/64/64 62/62/62 69/69/69
f 69/69/69 62/62/62 63/63/63
f 69/69/69 63/63/63 64/64/64
f 64/64/64 63/63/63 65/65/65
f 59/59/59 63/63/63 62/62/62
f 59/59/59 62/62/62 58/58/58
f 58/58/58 62/62/62 61/61/61
f 58/58/58 61/61/61 60/60/60
f 60/60/60 61/61/61 66/66/66
f 60/60/60 66/66/66 67/67/67
f 67/67/67 66/66/66 61/61/61
f 67/67/67 61/61/61 71/71/71
f 71/71/71 61/61/61 72/72/72
f 74/74/74 73/73/73 75/75/75
f 74/74/74 75/75/75 78/78/78
f 78/78/78 75/75/75 77/77/77
f 78/78/78 77/77/77 80/80/80
f 80/80/80 77/77/77 79/79/79
f 80/80/80 79/79/79 81/81/81
f 83/83/83 91/91/91 82/82/82
f 83/83/83 82/82/82 84/84/84
f 84/84/84 82/82/82 85/85/85
f 84/84/84 85/85/85 86/86/86
f 86/86/86 85/85/85 88/88/88
f 86/86/86 88/88/88 87/87/87
f 87/87/87 88/88/88 92/92/92
f 106/106/106 97/97/97 100/100/100
f 100/100/100 97/97/97 98/98/98
f 100/100/100 98/98/98 105/105/105
f 105/105/105 98/98/98 99/99/99
f 105/105/105 99/99/99 100/100/100
f 100/100/100 99/99/99 101/101/101
f 95/95/95 99/99/99 98/98/98
f 95/95/95 98/98/98 94/94/94
f 94/94/94 98/98/98 97/97/97
f 94/94/94 97/97/97 96/96/96
f 96/96/96 97/97/97 102/102/102
f 96/96/96 102/102/102 103/103/103
f 103/103/103 102/102/102 97/97/97
f 103/103/103 97/97/97 107/107/107
f 107/107/107 97/97/97 108/108/108
f 110/110/110 109/109/109 111/111/111
f 110/110/110 111/111/111 114/114/114
f 114/114/114 111/111/111 113/113/113
f 114/114/114 113/113/113 116/116/116
f 116/116/116 113/113/113 115/115/115
f 116/116/116 115/115/115 117/117/117
f 119/119/119 127/127/127 118/118/118
f 119/119/119 118/118/118 120/120/120
f 120/120/120 118/118/118 121/121/121
f 120/120/120 121/121/121 122/122/122
f 122/122/122 121/121/121 124/124/124
f 122/122/122 124/124/124 123/123/123
f 123/123/123 124/124/124 128/128/128
f 142/142/142 133/133/133 136/136/136
f 136/136/136 133/133/133 134/134/134
f 136/136/136 134/134/134 141/141/141
f 141/141/141 134/134/134 135/135/135
f 141/141/141 135/135/135 136/136/136
f 136/136/136 135/135/135 137/137/137
f 131/131/131 135/135/135 134/134/134
f 131/131/131 134/134/134 130/130/130
f 130/130/130 134/134/134 133/133/133
f 130/130/130 133/133/133 132/132/132
f 132/132/132 133/133/133 138/138/138
f 132/132/132 138/138/138 139/139/139
f 139/139/139 138/138/138 133/133/133
f 139/139/139 133/133/133 143/143/143
f 143/143/143 133/133/133 144/144/144
f 146/146/146 145/145/145 147/147/147
f 146/146/146 147/147/147 150/150/150
f 150/150/150 147/147/147 149/149/149
f 150/150/150 149/149/149 152/152/152
f 152/152/152 149/149/149 151/151/151
f 152/152/152 151/151/151 153/153/153
f 155/155/155 163/163/163 154/154/154
f 155/155/155 154/154/154 156/156/156
f 156/156/156 154/154/154 157/157/157
f 156/156/156 157/157/157 158/158/158
f 158/158/158 157/157/157 160/160/160
f 158/158/158 160/160/160 159/159/159
f 159/159/159 160/160/160 164/164/164
f 178/178/178 169/169/169 172/172/172
f 172/172/172 169/169/169 170/170/170
f 172/172/172 170/170/170 177/177/177
f 177/177/177 170/170/170 171/171/171
f 177/177/177 171/171/171 172/172/172
f 172/172/172 171/171/171 173/173/173
f 167/167/167 171/171/171 170/170/170
f 167/167/167 170/170/170 166/166/166
f 166/166/166 170/170/170 169/169/169
f 166/166/166 169/169/169 168/168/168
f 168/168/168 169/169/169 174/174/174
f 168/168/168 174/174/174 175/175/175
f 175/175/175 174/174/174 169/169/169
f 175/175/175 169/169/169 179/179/179
f 179/179/179 169/169/169 180/180/180
f 3/3/3 1/1/1 4/4/4
f 3/3/3 4/4/4 5/5/5
f 5/5/5 4/4/4 7/7/7
f 12/12/12 14/14/14 15/15/15
f 12/12/12 15/15/15 11/11/11
f 17/17/17 13/13/13 10/10/10
f 17/17/17 10/10/10 18/18/18
f 18/18/18 10/10/10 19/19/19
f 31/31/31 32/32/32 24/24/24
f 24/24/24 32/32/32 21/21/21
f 24/24/24 21/21/21 22/22/22
f 22/22/22 21/21/21 23/23/23
f 39/39/39 37/37/37 40/40/40
f 39/39/39 40/40/40 41/41/41
f 41/41/41 40/40/40 43/43/43
f 48/48/48 50/50/50 51/51/51
f 48/48/48 51/51/51 47/47/47
f 53/53/53 49/49/49 46/46/46
f 53/53/53 46/46/46 54/54/54
f 54/54/54 46/46/46 55/55/55
f 67/67/67 68/68/68 60/60/60
f 60/60/60 68/68/68 57/57/57
f 60/60/60 57/57/57 58/58/58
f 58/58/58 57/57/57 59/59/59
f 75/75/75 73/73/73 76/76/76
f 75/75/75 76/76/76 77/77/77
f 77/77/77 76/76/76 79/79/79
f 84/84/84 86/86/86 87/87/87
f 84/84/84 87/87/87 83/83/83
f 89/89/89 85/85/85 82/82/82
f 89/89/89 82/82/82 90/90/90
f 90/90/90 82/82/82 91/91/91
f 103/103/103 104/104/104 96/96/96
f 96/96/96 104/104/104 93/93/93
f 96/96/96 93/93/93 94/94/94
f 94/94/94 93/93/93 95/95/95
f 111/111/111 109/109/109 112/112/112
f 111/111/111 112/112/112 113/113/113
f 113/113/113 112/112/112 115/115/115
f 120/120/120 122/122/122 123/123/123
f 120/120/120 123/123/123 119/119/119
f 125/125/125 121/121/121 118/118/118
f 125/125/125 118/118/118 126/126/126
f 126/126/126 118/118/118 127/127/127
f 139/139/139 140/140/140 132/132/132
f 132/132/132 140/140/140 129/129/129
f 132/132/132 129/129/129 130/130/130
f 130/130/130 129/129/129 131/131/131
f 147/147/147 145/145/145 148/148/148
f 147/147/147 148/148/148 149/149/149
f 149/149/149 148/148/148 151/151/151
f 156/156/156 158/158/158 159/159/159
f 156/156/156 159/159/159 155/155/155
f 161/161/161 157/157/157 154/154/154
f 161/161/161 154/154/154 162/162/162
f 162/162/162 154/154/154 163/163/163
f 175/175/175 176/176/176 168/168/168
f 168/168/168 176/176/176 165/165/165
f 168/168/168 165/165/165 166/166/166
f 166/166/166 165/165/165 167/167/167

