g NewMesh_tris_56
v 0.4297971 -0.02916292 -0.2957689
v 0.4020824 -12.42679 0.4441559
v 2.63051 -0.1119658 4.220994
v 2.792352 -12.26352 4.834767
v -3.215902 -12.4765 -3.337482
v -2.875602 -0.3235755 -3.92533
v -0.5195706 0.6227307 0.3051714
v 2.143304 -0.02749761 4.446174
v -3.292677 0.2094217 -3.659326
v 0.4297971 -0.02916292 -0.2957689
v 2.63051 -0.1119658 4.220994
v 0.4020824 -12.42679 0.4441559
v 2.792352 -12.26352 4.834767
v -3.215902 -12.4765 -3.337482
v -2.875602 -0.3235755 -3.92533
v -0.5195706 0.6227307 0.3051714
v 2.143304 -0.02749761 4.446174
v -3.292677 0.2094217 -3.659326
v 5.146949 5.221684 8.226557
v 5.698655 -2.953535 8.598803
v 7.323031 5.560421 14.62483
v 7.877292 -2.641231 14.76338
v 2.969926 -3.231212 2.680083
v 1.801711 5.118587 2.334523
v 4.262503 5.814533 8.580846
v 6.763314 5.96344 14.91788
v 1.459551 5.315278 2.454297
v 5.146949 5.221684 8.226557
v 7.323031 5.560421 14.62483
v 5.698655 -2.953535 8.598803
v 7.877292 -2.641231 14.76338
v 2.969926 -3.231212 2.680083
v 1.801711 5.118587 2.334523
v 4.262503 5.814533 8.580846
v 6.763314 5.96344 14.91788
v 1.459551 5.315278 2.454297
v -19.78833 -0.6177682 -15.17516
v -20.36496 -21.45713 -15.07936
v -9.868558 -1.106829 -9.709296
v -10.43056 -21.70696 -9.629189
v -10.30174 0.6107855 -8.840979
v -20.23614 0.8606147 -14.29115
v -19.78833 -0.6177682 -15.17516
v -9.868558 -1.106829 -9.709296
v -20.36496 -21.45713 -15.07936
v -10.43056 -21.70696 -9.629189
v -10.30174 0.6107855 -8.840979
v -20.23614 0.8606147 -14.29115
v 6.369796 5.558932 13.97397
v 6.377873 -15.27721 14.66374
v 11.64641 5.653378 24.00717
v 11.66911 -14.94353 24.68125
v 10.76206 7.368507 24.41715
v 5.470825 7.03483 14.39964
v 6.369796 5.558932 13.97397
v 11.64641 5.653378 24.00717
v 6.377873 -15.27721 14.66374
v 11.66911 -14.94353 24.68125
v 10.76206 7.368507 24.41715
v 5.470825 7.03483 14.39964
v -6.485767 -2.640564 -8.028038
v -6.472889 -8.259052 -7.697347
v -2.652469 -2.475455 -5.074949
v -2.638172 -8.076624 -4.747175
v -3.002987 -2.130059 -4.64425
v -6.837705 -2.312489 -7.594422
v -6.485767 -2.640564 -8.028038
v -2.652469 -2.475455 -5.074949
v -6.472889 -8.259052 -7.697347
v -2.638172 -8.076624 -4.747175
v -3.002987 -2.130059 -4.64425
v -6.837705 -2.312489 -7.594422

vn 0.7051804 0.5062805 -0.4963877
vn 0.8129925 -0.01621469 -0.5820485
vn 0.7235706 0.6156544 -0.3121142
vn 0.8781958 0.004786625 -0.4782773
vn 0.7277991 -0.03528071 -0.6848824
vn 0.6796347 0.4188361 -0.6022233
vn 0.3490304 0.9004613 -0.2595135
vn 0.1617919 0.9867172 0.01459024
vn 0.507448 0.7516319 -0.4213623
vn -0.7051804 -0.5062805 0.4963877
vn -0.7235706 -0.6156544 0.3121142
vn -0.8129925 0.01621469 0.5820485
vn -0.8781958 -0.004786625 0.4782773
vn -0.7277991 0.03528071 0.6848824
vn -0.6796347 -0.4188361 0.6022233
vn -0.3490304 -0.9004613 0.2595135
vn -0.1617919 -0.9867172 -0.01459024
vn -0.507448 -0.7516319 0.4213623
vn 0.8296055 0.4113353 -0.3775684
vn 0.9269501 0.01720473 -0.3747899
vn 0.8443992 0.4340089 -0.3140481
vn 0.9421827 0.02433877 -0.3342146
vn 0.8957217 0.02532207 -0.4438936
vn 0.7553052 0.4869801 -0.4385936
vn 0.5937381 0.7506351 -0.2898656
vn 0.620665 0.741886 -0.2537325
vn 0.5268203 0.78843 -0.3175511
vn -0.8296055 -0.4113353 0.3775684
vn -0.8443992 -0.4340089 0.3140481
vn -0.9269501 -0.01720473 0.3747899
vn -0.9421827 -0.02433877 0.3342146
vn -0.8957217 -0.02532207 0.4438936
vn -0.7553052 -0.4869801 0.4385936
vn -0.5937381 -0.7506351 0.2898656
vn -0.620665 -0.741886 0.2537325
vn -0.5268203 -0.78843 0.3175511
vn 0.4681605 0.2819954 -0.8374393
vn 0.4809955 -0.01680461 -0.8765621
vn 0.4771311 0.2423517 -0.8447553
vn 0.4806018 -0.01652063 -0.8767834
vn 0.4361284 0.4976689 -0.7497452
vn 0.4103871 0.5563453 -0.7225388
vn -0.4681605 -0.2819954 0.8374393
vn -0.4771311 -0.2423517 0.8447553
vn -0.4809955 0.01680461 0.8765621
vn -0.4806018 0.01652063 0.8767834
vn -0.4361284 -0.4976689 0.7497452
vn -0.4103871 -0.5563453 0.7225388
vn 0.8445234 0.2841459 -0.4539179
vn 0.8845512 -0.01455676 -0.4662159
vn 0.8570675 0.2448024 -0.4533287
vn 0.8843373 -0.01429639 -0.4666295
vn 0.7638863 0.5000535 -0.4079511
vn 0.7259004 0.5580835 -0.402009
vn -0.8445234 -0.2841459 0.4539179
vn -0.8570675 -0.2448024 0.4533287
vn -0.8845512 0.01455676 0.4662159
vn -0.8843373 0.01429639 0.4666295
vn -0.7638863 -0.5000535 0.4079511
vn -0.7259004 -0.5580835 0.402009
vn 0.572623 0.3022893 -0.7620526
vn 0.6091923 -0.1162384 -0.7844573
vn 0.5791759 0.2823839 -0.7647315
vn 0.6090982 -0.1161826 -0.7845388
vn 0.4524504 0.6418895 -0.6190853
vn 0.4341078 0.6670128 -0.6055116
vn -0.572623 -0.3022893 0.7620526
vn -0.5791759 -0.2823839 0.7647315
vn -0.6091923 0.1162384 0.7844573
vn -0.6090982 0.1161826 0.7845388
vn -0.4524504 -0.6418895 0.6190853
vn -0.4341078 -0.6670128 0.6055116

vt 0.729836 0.968822
vt 0.716889 0.4835
vt 0.540142 0.975514
vt 0.522791 0.482184
vt 0.918043 0.484863
vt 0.918043 0.962797
vt 0.730668 1
vt 0.541003 1
vt 0.918043 1
vt 0.729836 0.968822
vt 0.540142 0.975514
vt 0.716889 0.4835
vt 0.522791 0.482184
vt 0.918043 0.484863
vt 0.918043 0.962797
vt 0.730668 1
vt 0.541003 1
vt 0.918043 1
vt 0.269931 0.967478
vt 0.261395 0.480716
vt 0 0.96808
vt 0 0.479248
vt 0.522791 0.482184
vt 0.540178 0.976556
vt 0.270501 1
vt 0 1
vt 0.541003 1
vt 0.269931 0.967478
vt 0 0.96808
vt 0.261395 0.480716
vt 0 0.479248
vt 0.522791 0.482184
vt 0.540178 0.976556
vt 0.270501 1
vt 0 1
vt 0.541003 1
vt 0.212747 0.431268
vt 0.212747 0.031292
vt 0 0.425375
vt 0 0.031292
vt 0 0.465837
vt 0.212747 0.467241
vt 0.212747 0.431268
vt 0 0.425375
vt 0.212747 0.031292
vt 0 0.031292
vt 0 0.465837
vt 0.212747 0.467241
vt 0.212747 0.431268
vt 0.212747 0.031292
vt 0 0.425375
vt 0 0.031292
vt 0 0.465837
vt 0.212747 0.467241
vt 0.212747 0.431268
vt 0 0.425375
vt 0.212747 0.031292
vt 0 0.031292
vt 0 0.465837
vt 0.212747 0.467241
vt 0.992177 0.448377
vt 0.992177 0.047684
vt 0.818619 0.445216
vt 0.818619 0.047684
vt 0.818619 0.479883
vt 0.992177 0.481287
vt 0.992177 0.448377
vt 0.818619 0.445216
vt 0.992177 0.047684
vt 0.818619 0.047684
vt 0.818619 0.479883
vt 0.992177 0.481287




usemtl Iceicle_Dif
usemap Iceicle_Dif
f 6/6/6 9/9/9 7/7/7
f 6/6/6 7/7/7 1/1/1
f 1/1/1 7/7/7 3/3/3
f 1/1/1 3/3/3 2/2/2
f 2/2/2 3/3/3 4/4/4
f 8/8/8 3/3/3 7/7/7
f 12/12/12 13/13/13 11/11/11
f 12/12/12 11/11/11 10/10/10
f 10/10/10 11/11/11 16/16/16
f 10/10/10 16/16/16 15/15/15
f 15/15/15 16/16/16 18/18/18
f 17/17/17 16/16/16 11/11/11
f 24/24/24 27/27/27 25/25/25
f 24/24/24 25/25/25 19/19/19
f 19/19/19 25/25/25 21/21/21
f 19/19/19 21/21/21 20/20/20
f 20/20/20 21/21/21 22/22/22
f 25/25/25 26/26/26 21/21/21
f 30/30/30 31/31/31 29/29/29
f 30/30/30 29/29/29 28/28/28
f 28/28/28 29/29/29 34/34/34
f 28/28/28 34/34/34 33/33/33
f 33/33/33 34/34/34 36/36/36
f 34/34/34 29/29/29 35/35/35
f 42/42/42 41/41/41 37/37/37
f 37/37/37 41/41/41 39/39/39
f 37/37/37 39/39/39 38/38/38
f 38/38/38 39/39/39 40/40/40
f 47/47/47 48/48/48 43/43/43
f 47/47/47 43/43/43 44/44/44
f 44/44/44 43/43/43 45/45/45
f 44/44/44 45/45/45 46/46/46
f 54/54/54 53/53/53 49/49/49
f 49/49/49 53/53/53 51/51/51
f 49/49/49 51/51/51 50/50/50
f 50/50/50 51/51/51 52/52/52
f 59/59/59 60/60/60 55/55/55
f 59/59/59 55/55/55 56/56/56
f 56/56/56 55/55/55 57/57/57
f 56/56/56 57/57/57 58/58/58
f 66/66/66 65/65/65 61/61/61
f 61/61/61 65/65/65 63/63/63
f 61/61/61 63/63/63 62/62/62
f 62/62/62 63/63/63 64/64/64
f 71/71/71 72/72/72 67/67/67
f 71/71/71 67/67/67 68/68/68
f 68/68/68 67/67/67 69/69/69
f 68/68/68 69/69/69 70/70/70
f 1/1/1 2/2/2 5/5/5
f 1/1/1 5/5/5 6/6/6
f 14/14/14 12/12/12 10/10/10
f 14/14/14 10/10/10 15/15/15
f 19/19/19 20/20/20 23/23/23
f 19/19/19 23/23/23 24/24/24
f 32/32/32 30/30/30 28/28/28
f 32/32/32 28/28/28 33/33/33

